<?xml version="1.0" encoding="utf-8"?>
<!-- Generator: Adobe Illustrator 19.0.0, SVG Export Plug-In . SVG Version: 6.00 Build 0)  -->
<svg version="1.1" id="layer" xmlns="http://www.w3.org/2000/svg" xmlns:xlink="http://www.w3.org/1999/xlink" x="0px" y="0px"
	 viewBox="-153 -46 652 652" style="enable-background:new -153 -46 652 652;" xml:space="preserve">
<style type="text/css">
	.st0{fill:#004261;}
	.st1{fill:#E8494E;}
</style>
<path class="st0" d="M-30.8,257.7v-1.6h-21.9c-10.3,0-17.9,1-22.9,3.1c-4.8,1.9-7.2,6.1-7.2,12.7c0,9.8,6.9,14.7,20.6,14.7
	c11.5,0,19.6-2.4,24.2-7.2C-33.2,274.4-30.8,267.2-30.8,257.7 M-70.7,315.1c-16.1,0-28.1-4-35.8-11.9c-7.7-8.1-11.6-18.5-11.6-31.3
	c0-15.4,5-26.4,14.9-33.1c10-6.9,25.2-10.4,45.6-10.4h26.8v-5.7c0-12.8-8.1-19.1-24.2-19.1c-14.4,0-22.4,5.5-24,16.6H-115
	c1.2-13.3,6.7-24.4,16.5-33.4c9.8-9,24.6-13.5,44.3-13.5c19.6,0,34.4,4.4,44.3,13.2C0,195.4,5,207.8,5,223.8V312h-32.5v-15
	C-35.2,309.1-49.6,315.1-70.7,315.1 M87.3,280.5v31.3c-3.6,0.5-7.4,0.8-11.3,0.8c-14.3,0-24.4-3-30.4-9.1c-6-6.2-9-16.1-9-29.8V118
	h36.6v153.2c0,3.3,0.6,5.7,1.8,7.2c1.2,1.6,3.7,2.3,7.5,2.3h2.8C86.4,280.6,87.1,280.5,87.3,280.5 M231.8,234.9V312h-36.6v-80.5
	c0-17.8-7.2-26.7-21.6-26.7c-8.4,0-14.9,2.6-19.6,7.8c-4.5,5.2-6.7,12.3-6.7,21.5V312h-36.6V176.5h33.8V193
	c7-13.1,20-19.7,38.9-19.7c17.9,0,30.9,6.4,39.2,19.1c11.5-12.8,26.5-19.1,44.8-19.1c15.8,0,27.9,4.9,36.3,14.7
	c8.4,9.8,12.6,22.9,12.6,39.3V312h-36.6v-80.5c0-17.8-7.2-26.7-21.6-26.7c-8.6,0-15.1,2.7-19.6,8
	C234.1,218.1,231.8,225.4,231.8,234.9 M428.9,257.7v-1.6H407c-10.3,0-17.9,1-22.9,3.1c-4.8,1.9-7.2,6.1-7.2,12.7
	c0,9.8,6.9,14.7,20.6,14.7c11.5,0,19.6-2.4,24.2-7.2C426.5,274.4,428.9,267.2,428.9,257.7 M389,315.1c-16.1,0-28.1-4-35.8-11.9
	c-7.7-8.1-11.6-18.5-11.6-31.3c0-15.4,5-26.4,14.9-33.1c10-6.9,25.2-10.4,45.6-10.4h26.8v-5.7c0-12.8-8.1-19.1-24.2-19.1
	c-14.4,0-22.4,5.5-24,16.6h-36.1c1.2-13.3,6.7-24.4,16.5-33.4c9.8-9,24.6-13.5,44.3-13.5c19.6,0,34.4,4.4,44.3,13.2
	c10,8.8,14.9,21.2,14.9,37.3V312h-32.5v-15C424.5,309.1,410.1,315.1,389,315.1"/>
<rect x="-126.6" y="400.9" class="st1" width="600" height="42.9"/>
</svg>
