<?xml version="1.0" encoding="UTF-8"?>
<svg xmlns="http://www.w3.org/2000/svg" xmlns:xlink="http://www.w3.org/1999/xlink" width="1804.35pt" height="528.73pt" viewBox="0 0 1804.35 528.73" version="1.1">
<defs>
<clipPath id="clip1">
  <path d="M 0 0 L 581 0 L 581 528.730469 L 0 528.730469 Z M 0 0 "/>
</clipPath>
<clipPath id="clip2">
  <path d="M 584 0 L 1804.351563 0 L 1804.351563 528.730469 L 584 528.730469 Z M 584 0 "/>
</clipPath>
<clipPath id="clip3">
  <path d="M 0 0 L 581 0 L 581 528.730469 L 0 528.730469 Z M 0 0 "/>
</clipPath>
</defs>
<g id="surface1">
<g clip-path="url(#clip1)" clip-rule="nonzero">
<path style=" stroke:none;fill-rule:nonzero;fill:rgb(100%,100%,100%);fill-opacity:1;" d="M 580.679688 0 L 101.277344 0 L 0.0195313 528.640625 L 302.65625 528.640625 C 422.707031 527.832031 497.351563 430.132813 516.824219 334.539063 L 580.679688 0 L 580.664063 0 L 580.679688 0 "/>
</g>
<g clip-path="url(#clip2)" clip-rule="nonzero">
<path style=" stroke:none;fill-rule:nonzero;fill:rgb(0.799561%,0.799561%,0.799561%);fill-opacity:1;" d="M 1555.660156 503.933594 C 1571.710938 516.320313 1605.25 527.992188 1643.171875 528.707031 C 1717.570313 528.707031 1778.089844 486.417969 1778.089844 412.023438 C 1778.089844 372.664063 1751.121094 342.039063 1711.738281 319.4375 C 1680.378906 301.902344 1663.601563 285.863281 1663.601563 260.347656 C 1663.601563 229.703125 1689.851563 207.082031 1726.339844 207.082031 C 1752.570313 207.082031 1775.179688 215.859375 1787.589844 223.140625 L 1804.351563 177.199219 C 1791.238281 168.441406 1762.789063 159.683594 1730.699219 159.683594 C 1656.308594 159.683594 1603.070313 207.082031 1603.070313 269.085938 C 1603.070313 304.835938 1625.660156 336.175781 1666.511719 358.796875 C 1702.988281 379.207031 1715.371094 395.984375 1715.371094 423.695313 C 1715.371094 455.054688 1689.121094 481.328125 1648.28125 481.328125 C 1619.828125 481.328125 1589.210938 469.640625 1572.429688 459.445313 Z M 1511.808594 458.710938 C 1493.578125 467.484375 1465.871094 478.417969 1430.128906 478.417969 C 1372.53125 478.417969 1342.621094 441.195313 1342.621094 384.316406 C 1342.621094 301.1875 1400.238281 210.753906 1492.109375 210.753906 C 1518.390625 210.753906 1538.050781 217.296875 1551.910156 223.878906 L 1569.429688 175.742188 C 1558.5 169.914063 1528.570313 160.421875 1495.761719 160.421875 C 1368.878906 160.421875 1279.898438 271.277344 1279.898438 391.613281 C 1279.898438 466.765625 1324.390625 528.730469 1415.558594 528.730469 C 1462.960938 528.730469 1499.421875 515.597656 1517.660156 506.84375 Z M 1202.679688 212.945313 C 1193.941406 210.753906 1180.808594 207.820313 1160.390625 207.820313 C 1069.21875 207.820313 994.824219 303.378906 994.089844 401.09375 C 994.089844 440.476563 1007.960938 479.15625 1054.640625 479.15625 C 1104.96875 479.15625 1164.761719 413.5 1182.269531 319.4375 Z M 1163.300781 520.707031 C 1163.300781 499.5625 1166.96875 466.011719 1171.320313 429.539063 L 1169.859375 429.539063 C 1131.210938 502.476563 1083.070313 528.730469 1032.75 528.730469 C 970.765625 528.730469 931.386719 479.15625 931.386719 412.023438 C 931.386719 289.515625 1021.800781 159.683594 1175.710938 159.683594 C 1209.269531 159.683594 1246.429688 165.527344 1270.511719 173.550781 L 1234.78125 357.339844 C 1223.109375 418.605469 1217.980469 481.347656 1219.460938 520.707031 Z M 651.332031 384.316406 C 648.402344 395.984375 646.222656 410.570313 646.945313 428.824219 C 646.945313 462.359375 665.917969 481.328125 703.839844 481.328125 C 795.011719 481.328125 850.429688 372.664063 850.429688 294.621094 C 850.429688 250.851563 831.457031 210.015625 783.339844 210.015625 C 730.8125 210.015625 676.847656 263.976563 659.351563 347.144531 Z M 728.621094 0 L 681.21875 231.882813 L 682.675781 231.882813 C 714.035156 184.5 759.261719 159.683594 806.664063 159.683594 C 883.980469 159.683594 913.15625 223.878906 913.15625 286.601563 C 913.15625 394.527344 835.109375 528.730469 693.628906 528.730469 C 631.625 528.730469 584.960938 503.214844 584.960938 437.582031 C 584.960938 420.800781 587.871094 399.636719 590.804688 382.855469 L 668.074219 0 L 728.621094 0 "/>
</g>
<g clip-path="url(#clip3)" clip-rule="nonzero">
<path style=" stroke:none;fill-rule:nonzero;fill:rgb(89.399719%,10.998535%,23.098755%);fill-opacity:1;" d="M 471.4375 172.539063 C 466.851563 85.648438 370 17.191406 241.070313 0 L 226.753906 0 C 352.898438 23.847656 445.1875 99.511719 445.1875 189.246094 C 445.1875 257.273438 392.195313 317.277344 311.539063 352.703125 C 410.136719 315.464844 475.375 247.183594 471.4375 172.539063 M 275.289063 0 C 401.34375 27.027344 493.019531 102.375 497.925781 195.703125 C 504.453125 319.273438 356.371094 427.566406 167.160156 437.527344 C 114.941406 440.292969 65.058594 435.257813 20.066406 423.949219 L 0 528.640625 L 302.65625 528.640625 C 422.691406 527.832031 497.351563 430.097656 516.84375 334.484375 L 580.664063 0 Z M 211.957031 377.515625 C 329.46875 352.6875 414.882813 277.84375 414.882813 189.246094 C 414.882813 99.460938 327.128906 23.792969 207.136719 0 L 177.933594 0 C 298.628906 19.222656 388.953125 96.816406 388.953125 189.714844 C 388.953125 286.925781 290.054688 367.46875 160.960938 381.796875 C 164.214844 381.671875 167.484375 381.601563 170.777344 381.4375 C 184.765625 380.703125 198.488281 379.335938 211.957031 377.515625 M 90.828125 359.605469 C 71.011719 359.605469 51.773438 357.828125 33.355469 354.550781 L 98.9375 12.15625 C 227.925781 15.269531 331.179688 91.800781 331.179688 185.789063 C 331.179688 281.78125 223.570313 359.605469 90.828125 359.605469 "/>
</g>
</g>
</svg>
