<svg viewBox="0 0 187 140" xmlns="http://www.w3.org/2000/svg">
    <g stroke="none" stroke-width="1" fill="none" fill-rule="evenodd">
        <g>
            <g fill="#808080" fill-rule="nonzero">
                <path
                    d="M163.625,0 L23.375,0 C10.4653381,0 0,10.4466833 0,23.3333333 L0,116.666667 C0,129.553083 10.4653381,140 23.375,140 L163.625,140 C176.534428,140 187,129.553083 187,116.666667 L187,23.3333333 C187,10.4466833 176.534428,0 163.625,0 Z"/>
            </g>
            <g transform="translate(25.000000, 46.000000)" fill="#FFFFFF">
                <path
                    d="M49,17.9638018 C50.2611741,11.8553363 51.4702336,6.00638458 52.701297,0.0480414131 C55.8907125,0.0480414131 58.9712663,-0.089279777 62.0309742,0.100409664 C63.8202433,0.213292337 65.2273383,1.25483865 65.785544,3.15522427 C66.495461,5.58161988 65.3732593,7.26205885 63.4450179,8.76328203 C65.3280933,10.309891 66.0715954,12.1427798 65.0455162,14.4306905 C64.0356504,16.6755428 62.2104802,17.838118 59.8734285,17.9288896 C56.3886967,18.0650471 52.8970164,17.9638018 49,17.9638018 Z M54.5855305,10.5763872 C54.2809494,12.0333883 54.0087952,13.3437583 53.6613643,15.0113962 C55.8165939,14.8612739 57.697353,14.9555367 59.4437723,14.5098247 C60.2046459,14.3143166 60.6910491,13.0248939 61.3002113,12.231224 C60.5300728,11.6807755 59.82363,10.8207724 58.9770568,10.6473753 C57.6579775,10.3785516 56.2439339,10.5763872 54.5855305,10.5763872 Z M55.30008,7.33304692 C56.8820486,7.33304692 58.1883887,7.45640325 59.4576695,7.30046223 C60.7362152,7.14335748 62.0112865,6.51377474 61.8178833,5.00324165 C61.7298675,4.31430822 60.6748357,3.20177383 60.1131558,3.23203104 C58.6771081,3.31698398 56.6932778,2.00545024 55.8675504,4.32827309 C55.5548626,5.20805969 55.5062223,6.18443663 55.30008,7.33304692 Z"/>
                <path
                    d="M97.6015675,12.0082186 C98.3241681,8.60154871 98.9320314,5.86116372 99.4776436,3.11106965 C100.159964,-0.296813901 100.168508,-0.32230021 104,0.333062012 C103.470256,2.83678843 102.93685,5.33323304 102.421753,7.83331855 C101.783374,10.9341528 101.2341,14.0568324 100.476102,17.129753 C100.306437,17.8166697 99.4935115,18.7232541 98.8526918,18.839763 C97.6894514,19.0521489 96.3089426,19.3458483 95.658358,17.5593794 C94.4401902,14.2121775 92.9974303,10.9475027 91.2385327,7.70467338 C90.6453167,10.4948174 90.060645,13.2886022 89.4527817,16.0763189 C88.7545933,19.270603 88.7423873,19.2693893 85,18.6431543 C85.8300141,14.5726267 86.6563664,10.5057401 87.491263,6.44249428 C87.7988565,4.96064748 88.1113324,3.48001431 88.4396762,2.00544931 C88.649621,1.05517409 88.5898111,-0.0771461936 90.1436464,0.0345081109 C91.4741102,0.132812444 92.792368,-0.266473058 93.4380702,1.60616381 C94.5891045,4.92059757 96.0306437,8.13308609 97.6015675,12.0082186 Z"
                    id="Path"/>
                <path
                    d="M56.8868948,36.6100959 C56.2896062,39.4781156 55.6934797,42.3449196 55.0973531,45.2141551 C54.455907,48.3058779 54.455907,48.3058779 51,47.6299055 C51.7692705,43.622702 52.5350549,39.6154985 53.3054874,35.6095108 C53.5785668,34.1955612 53.7947063,32.7645908 54.165397,31.3798199 C54.426856,30.399903 54.1235636,28.9737957 55.9165913,29.0187795 C57.3947063,29.0589002 58.4788896,29.125768 59.0692059,30.925119 C60.1371207,34.1663826 61.481601,37.3067365 62.9504196,41.1121209 C63.6464816,37.6666067 64.2367979,34.8897703 64.7643641,32.1007761 C65.4034861,28.7136193 65.4697224,28.6491831 69,29.3652762 C68.0041317,34.426559 67.0059393,39.4878418 66.0077469,44.5491246 C65.9124597,45.0427304 65.9345384,45.6104986 65.6974822,46.0177842 C65.2977405,46.7059144 64.8120077,47.7186573 64.2251775,47.8353719 C63.0422208,48.0700171 61.6919303,48.3374882 61.0586185,46.4469537 C59.94306,43.11937 58.5753389,39.8866169 57.3145255,36.6113116 C57.1715946,36.6125274 57.0275016,36.6125274 56.8868948,36.6100959 Z"
                    id="Path"/>
                <path
                    d="M31.5066956,47.5810131 C27.6031253,48.3746703 27.4308216,48.2870271 26.2033062,45.1148328 C25.9157372,44.3771698 25.6341098,43.6346378 25.315645,42.9103647 C24.2010182,40.3760176 23.5070501,39.979189 20.5743221,40.2445529 C20.2511041,41.7308343 19.8946137,43.2609372 19.5915968,44.799561 C18.9047586,48.2845926 18.9035703,48.295548 15,47.6272692 C15.5965273,44.6814862 16.1954313,41.7442242 16.7883937,38.8045276 C17.349272,36.0462036 17.9588706,33.3000522 18.4341912,30.5283383 C18.6326376,29.3609805 19.1210295,28.969021 20.2534807,29.0018872 C22.7227712,29.0712713 25.1980031,28.9970181 27.6684819,29.0274498 C30.8412467,29.0676195 32.3694024,30.2434982 32.8886902,32.973825 C33.416296,35.7333663 32.0343014,38.3565738 29.4640054,39.4606338 C29.017204,39.6529618 28.5513898,39.7892955 28.0035829,39.9864926 C29.1811896,42.5415332 30.3290888,45.028407 31.5066956,47.5810131 Z M21.3253287,37.4801425 C23.3715838,37.2220822 25.3037619,37.2512966 27.014916,36.639012 C27.822961,36.3480855 28.4491959,34.8642386 28.642889,33.8198247 C28.705869,33.4692522 27.2074209,32.4272728 26.3696684,32.3554541 C22.107231,31.9927089 22.0977246,32.0706139 21.3300819,36.3006121 C21.2932445,36.5014609 21.3253287,36.7181342 21.3253287,37.4801425 Z"/>
                <path
                    d="M132.040228,40.0615186 C133.256175,42.6894179 134.361581,45.0719008 135.489571,47.5066258 C131.758528,48.4299746 131.443546,48.2744632 130.206205,45.139937 C129.918561,44.4061177 129.586939,43.6868776 129.32188,42.9409089 C128.53502,40.7345913 127.105124,39.67517 124.584085,40.2486182 C124.261972,41.6907432 123.889937,43.210624 123.580899,44.7450839 C122.910523,48.1250265 122.921221,48.1286713 119,47.7046598 C119.628774,44.4790136 120.244474,41.2728064 120.885134,38.0726739 C121.3582,35.6756118 121.934675,33.2955588 122.334048,30.8851324 C122.561072,29.5110436 123.081683,28.9290909 124.530597,29.0068466 C126.85195,29.1331996 129.18519,29.0238556 131.511297,29.0445095 C134.809687,29.071238 136.375085,30.2448629 136.89213,33.039208 C137.407986,35.8056096 136.044651,38.3375292 133.423769,39.4795659 C132.985172,39.6715252 132.541821,39.8489054 132.040228,40.0615186 Z M125.101129,37.4336193 C127.200213,37.2185762 129.082969,37.3254903 130.725627,36.7398928 C131.621838,36.4215804 132.552518,34.9782405 132.676134,33.9419029 C132.854425,32.4730494 131.419774,32.3211828 130.25256,32.3066036 C128.932016,32.2920244 127.615037,32.3041737 126.187518,32.3041737 C125.830935,33.9892853 125.512388,35.4994466 125.101129,37.4336193 Z"/>
                <path
                    d="M104,18.5981821 C105.202646,12.7720623 106.341551,7.07904183 107.56344,1.40659125 C107.903788,-0.180920512 108.240529,-0.220850305 111.897775,0.294607022 C111.479254,2.51494551 111.059531,4.72681403 110.514732,7.62837899 C112.760072,5.49516005 114.797354,3.89191836 116.419723,1.93535851 C118.442574,-0.500358855 120.870716,0.0901180825 124,0.1639277 C120.958509,2.91424344 118.39086,5.23985137 115.719784,7.65378885 C117.678894,11.28498 119.606735,14.8520415 121.555021,18.4578228 C117.902586,19.4972074 117.188214,19.194709 115.670475,16.2023945 C114.736019,14.3535241 113.763079,12.5240136 112.737222,10.5493038 C110.728803,11.9649965 109.047505,13.2536398 108.702345,15.8756962 C108.260974,19.2068089 107.965123,19.2697286 104,18.5981821 Z"
                    id="Path"/>
                <path
                    d="M105.720574,29 C110.291632,29 114.641283,29 118.981562,29 C119.065908,31.8945885 118.965161,32.0043912 116.364508,32.0113999 C115.044267,32.0137362 113.721682,32.0113999 112.401441,32.0113999 C108.809728,32.012568 108.809728,32.012568 108.380972,35.9783178 C111.35298,35.9783178 114.300386,35.9783178 117.255994,35.9783178 C117.10956,39.0866712 117.10956,39.0866712 114.341388,39.0878393 C112.126147,39.0878393 109.912077,39.0878393 107.559775,39.0878393 C107.202478,40.682316 106.875639,42.1424595 106.489055,43.8701013 C109.996423,43.8701013 113.291755,43.8701013 116.581229,43.8701013 C116.578887,46.9959765 116.578887,46.9983127 113.762684,46.9994808 C109.955421,47.000649 106.145816,46.9994808 102,46.9994808 C102.663049,43.7988463 103.274554,40.8470202 103.887231,37.894026 C104.487021,34.9842521 105.089154,32.07331 105.720574,29 Z"
                    id="Path"/>
                <path
                    d="M83,18.601202 C79.3253685,19.3095364 79.2587333,19.2925557 78.7026318,16.1390122 C78.5063606,15.0267817 78.0423369,14.4518665 76.8525947,14.5743695 C76.2843777,14.6338017 75.6931413,14.6568468 75.1321936,14.5719437 C72.5600727,14.1801766 70.7681901,14.9382399 69.8037962,17.5641713 C68.9472303,19.8941548 66.9033452,18.613331 65,18.9117047 C65.363465,18.0784415 65.5645824,17.4974617 65.8626237,16.9686368 C68.7509591,11.8235092 71.7556034,6.73660098 74.5130915,1.52233809 C75.6604294,-0.652394029 77.4232348,0.167527283 78.9994615,0.085049991 C80.7453052,-0.00713051149 80.2824931,1.60602828 80.4339369,2.48416886 C81.3631958,7.84761862 82.1603958,13.2341135 83,18.601202 Z M76.8998452,4.73531376 C75.553813,7.22903893 74.5167261,9.15027467 73.4408696,11.1418587 C75.0788854,11.1418587 76.4031096,11.1418587 77.8872585,11.1418587 C77.5674093,9.06658447 77.2790604,7.17324547 76.8998452,4.73531376 Z"/>
                <path
                    d="M85.8850602,33.658469 C84.1938481,34.0777653 82.7737909,34.5226582 81.5547624,32.4761508 C81.0977729,31.7058157 79.3563036,31.5778328 78.1898698,31.5400474 C77.6767792,31.522983 76.8013695,32.3993611 76.6996864,32.9880824 C76.599172,33.5499882 77.130963,34.5177827 77.6534038,34.8639459 C78.9320396,35.7098519 80.3696283,36.3010109 81.7441034,36.9908997 C83.7917908,38.0208572 85.0902957,39.5907807 84.9196551,42.0882754 C84.7501832,44.5711435 83.4154464,46.3397451 81.2836075,47.228312 C78.5288135,48.3777203 75.6886992,48.2314541 73.006369,46.8675222 C72.2969248,46.5067323 71.5021603,45.8534101 71.2415243,45.1391437 C70.925956,44.2822678 70.9423188,42.4234687 71.1597103,42.3686188 C72.2922497,42.0578033 73.6410118,41.2923437 74.5246029,43.1316407 C75.4327382,45.0184741 79.216051,45.2025257 80.519231,43.5619069 C81.5208681,42.2991424 80.8955754,41.3618201 79.8273184,40.7219057 C78.5077756,39.9296306 77.0678493,39.3604115 75.7249311,38.6034841 C73.2845365,37.2310199 72.3577009,35.3246843 72.776121,32.738211 C73.1396089,30.4783988 74.8834157,28.7475826 77.3051099,28.2319944 C81.7289094,27.2934532 85.3193749,29.2656086 85.9960935,33.0075845 C86.0171314,33.1367863 85.9493426,33.2818336 85.8850602,33.658469 Z"
                    id="Path"/>
                <path
                    d="M31,47.6390074 C31.226392,47.1025032 31.3940445,46.5647852 31.6644911,46.0877578 C34.6247196,40.8902217 37.6938609,35.7521624 40.5255966,30.4890806 C41.702835,28.2981529 43.5090761,29.1575306 45.0730165,29.2072969 C45.5355905,29.2242902 46.2025291,30.601965 46.3481542,31.4297837 C47.2990006,36.7984669 48.1323679,42.187785 49,47.5552545 C45.5502753,48.3952113 45.3740567,48.2798993 44.6459311,44.9892594 C44.5553743,44.5777776 44.368142,43.8616295 44.1833571,43.8482776 C42.1715276,43.7001927 40.1437895,43.5278317 38.1441974,43.679558 C37.5298797,43.7268966 36.8458087,44.6615306 36.4395268,45.3339815 C34.6761167,48.2738302 34.636957,48.3235965 31,47.6390074 Z M39.26392,40.2068465 C40.985723,40.2068465 42.3367326,40.2068465 43.877422,40.2068465 C43.5543545,38.1045269 43.2569855,36.1600027 42.8764022,33.6753328 C41.5474199,36.0786774 40.4827657,38.0049945 39.26392,40.2068465 Z"/>
                <path
                    d="M89.8537905,29 C94.4391272,29 98.707093,29 102.968932,29 C103.09637,31.8402648 102.943199,32.0133526 100.322131,32.0214842 C98.9411388,32.0249692 97.5405402,32.1527521 96.1791535,31.991281 C94.0090222,31.7345535 92.8767797,32.4571076 92.8338918,34.5841117 C92.8216381,35.1080215 92.6929742,35.6296079 92.5802401,36.3963052 C95.5860741,36.3963052 98.3909474,36.3963052 101.188468,36.3963052 C101.250962,39.3713229 101.160285,39.4689025 98.4264831,39.4747109 C96.3200711,39.4770342 94.2161098,39.4747109 91.8180596,39.4747109 C91.4614767,41.0115904 91.0975416,42.5229133 90.7703677,44.0435295 C90.0694557,47.253203 89.8893262,47.363561 86,46.6247436 C87.2768362,40.7839045 88.5548977,34.9453887 89.8537905,29 Z"
                    id="Path"/>
                <path
                    d="M2.96803675,47.64829 C4.00442243,42.5595837 5.01036201,37.6184644 6.08815441,32.3346016 C4.21267385,32.3346016 2.60390123,32.3346016 1,32.3346016 C1.00243569,29.0059631 1.00243569,29.0023039 3.87045954,29.0010842 C7.90517843,28.9986447 11.9411152,29.0010842 15.9624378,29.0010842 C16.1012721,32.1638396 15.9953196,32.3968077 13.1309493,32.2345838 C11.0423459,32.1187097 10.0485848,32.6529506 9.74899504,34.9277439 C9.31666023,38.2161313 8.42885158,41.4459717 7.75051218,44.7026462 C7.00519133,48.3020644 6.94795264,48.3459746 2.96803675,47.64829 Z"
                    id="Path"/>
                <path
                    d="M20.7707888,1.99148809 C14.4521211,1.9945688 8.13227186,2.02537589 1.81478564,1.94681781 C1.20749409,1.93911603 0.606110048,1.26290035 0,0.894755592 C0.582480027,0.597467147 1.16259705,0.041399124 1.74625858,0.0383184148 C14.5230111,-0.0125132882 27.3009452,-0.0140536428 40.0776978,0.041399124 C40.7204343,0.0429394787 41.3596264,0.635976013 42,0.954829422 C41.3808934,1.29986886 40.7665129,1.93603532 40.1462248,1.94065639 C33.68814,2.01459341 27.2300551,1.98686703 20.7707888,1.99148809 Z"
                    id="Path"/>
                <path
                    d="M18.0984063,9.99074616 C12.6461019,9.99539423 7.19021901,10.0232826 1.73910739,9.95201225 C1.15821212,9.94271611 0.580895265,9.35860879 0,9.04408946 C0.55465359,8.69548429 1.10930718,8.046304 1.66396077,8.04320528 C12.5697624,7.98432974 23.4755641,7.9858791 34.3789802,8.046304 C34.9217057,8.04940271 35.4608529,8.7233727 36,9.08127401 C35.4155263,9.38339849 34.8322455,9.9396174 34.2441934,9.94891354 C28.8622643,10.0170852 23.4803353,9.9891968 18.0984063,9.99074616 Z"
                    id="Path"/>
                <path
                    d="M14.4596959,16.0098621 C18.7485284,16.0098621 23.0385464,15.9739157 27.327379,16.0536228 C27.8880804,16.0661258 28.440484,16.6819017 29,17.0194844 C28.4310007,17.344564 27.8643721,17.9478368 27.2953728,17.9556512 C18.7177077,18.0150407 10.1376717,18.0134779 1.56119196,17.958777 C1.03960922,17.9556512 0.520397319,17.4086422 0,17.1163831 C0.532251472,16.7491056 1.05739045,16.0692516 1.59319817,16.0583114 C5.88203074,15.9692271 10.1708633,16.0082992 14.4596959,16.0098621 Z"
                    id="Path"/>
            </g>
        </g>
    </g>
</svg>
