<svg aria-hidden="true" viewBox="0 0 32 32" fill="none"
     xmlns="http://www.w3.org/2000/svg">
    <path fill="#D8DEE4" d="M0 0h32v32H0z"/>
    <path fill-rule="evenodd" clip-rule="evenodd"
          d="M6 10.375C6 9.339 6.84 8.5 7.875 8.5h16.25C25.16 8.5 26 9.34 26 10.375v11.25c0 1.035-.84 1.875-1.875 1.875H7.875A1.875 1.875 0 0 1 6 21.625v-11.25Zm1.875 0h16.25v1.875H7.875v-1.875Zm16.25 3.75v7.5H7.875v-7.5h16.25Z"
          fill="#474E5A"/>
    <path fill-rule="evenodd" clip-rule="evenodd"
          d="M14.75 18.813c0-.518.42-.938.938-.938h5.624a.937.937 0 1 1 0 1.875h-5.625a.937.937 0 0 1-.937-.938Z"
          fill="#474E5A"/>
</svg>
