<?xml version="1.0" encoding="UTF-8"?>
<!DOCTYPE svg PUBLIC "-//W3C//DTD SVG 1.1//EN" "http://www.w3.org/Graphics/SVG/1.1/DTD/svg11.dtd">
<svg xmlns="http://www.w3.org/2000/svg" version="1.1" width="120px" height="120px" style="shape-rendering:geometricPrecision; text-rendering:geometricPrecision; image-rendering:optimizeQuality; fill-rule:evenodd; clip-rule:evenodd" xmlns:xlink="http://www.w3.org/1999/xlink">
<g><path style="opacity:0.744" fill="#f6f8f8" d="M 79.5,-0.5 C 80.5,-0.5 81.5,-0.5 82.5,-0.5C 91.1329,9.46772 100.133,19.1344 109.5,28.5C 107.833,28.5 106.167,28.5 104.5,28.5C 96.4938,20.1607 88.4938,11.8274 80.5,3.5C 71.8127,11.8547 63.1461,20.1881 54.5,28.5C 53.5,28.5 52.5,28.5 51.5,28.5C 52.1667,27.5 52.8333,26.5 53.5,25.5C 56.8333,22.8333 59.8333,19.8333 62.5,16.5C 64.5869,15.4154 65.9202,13.7488 66.5,11.5C 71.4447,8.18881 75.778,4.18881 79.5,-0.5 Z"/></g>
<g><path style="opacity:0.963" fill="#c03027" d="M 25.5,-0.5 C 27.5,-0.5 29.5,-0.5 31.5,-0.5C 33.5,0.5 35.5,1.5 37.5,2.5C 36.1667,6.16667 36.1667,9.83333 37.5,13.5C 35.6373,18.4214 33.9706,23.4214 32.5,28.5C 26.8333,28.5 21.1667,28.5 15.5,28.5C 18.0417,18.5409 21.3751,8.87419 25.5,-0.5 Z"/></g>
<g><path style="opacity:0.891" fill="#d33728" d="M 37.5,2.5 C 47.2267,5.29773 56.8934,8.29773 66.5,11.5C 65.9202,13.7488 64.5869,15.4154 62.5,16.5C 59.8862,15.4552 57.2196,14.9552 54.5,15C 53.3084,17.5724 52.3084,20.2391 51.5,23C 51.6387,24.301 52.3054,25.1344 53.5,25.5C 52.8333,26.5 52.1667,27.5 51.5,28.5C 48.5,28.5 45.5,28.5 42.5,28.5C 43.7581,23.0578 45.4248,17.7245 47.5,12.5C 46.675,11.6143 45.675,11.281 44.5,11.5C 43.0361,17.2252 41.3694,22.8919 39.5,28.5C 38.1667,28.5 36.8333,28.5 35.5,28.5C 36.9991,22.1694 38.9991,16.0028 41.5,10C 40.9747,9.30762 40.3081,8.80762 39.5,8.5C 38.438,10.0217 37.7713,11.6883 37.5,13.5C 36.1667,9.83333 36.1667,6.16667 37.5,2.5 Z"/></g>
<g><path style="opacity:1" fill="#31a4db" d="M 104.5,28.5 C 87.8333,28.5 71.1667,28.5 54.5,28.5C 63.1461,20.1881 71.8127,11.8547 80.5,3.5C 88.4938,11.8274 96.4938,20.1607 104.5,28.5 Z"/></g>
<g><path style="opacity:1" fill="#eed5d3" d="M 29.5,6.5 C 30.675,6.28099 31.675,6.61432 32.5,7.5C 29.3156,15.4911 28.3156,15.1577 29.5,6.5 Z"/></g>
<g><path style="opacity:1" fill="#facf60" d="M 62.5,16.5 C 59.8333,19.8333 56.8333,22.8333 53.5,25.5C 52.3054,25.1344 51.6387,24.301 51.5,23C 52.3084,20.2391 53.3084,17.5724 54.5,15C 57.2196,14.9552 59.8862,15.4552 62.5,16.5 Z"/></g>
<g><path style="opacity:1" fill="#f1dcdb" d="M 35.5,28.5 C 34.5,28.5 33.5,28.5 32.5,28.5C 33.9706,23.4214 35.6373,18.4214 37.5,13.5C 37.7713,11.6883 38.438,10.0217 39.5,8.5C 40.3081,8.80762 40.9747,9.30762 41.5,10C 38.9991,16.0028 36.9991,22.1694 35.5,28.5 Z"/></g>
<g><path style="opacity:1" fill="#dbeef8" d="M 82.5,12.5 C 89.2464,15.8854 88.5798,17.5521 80.5,17.5C 80.3848,21.8124 80.0514,22.1457 79.5,18.5C 80.0906,16.2575 81.0906,14.2575 82.5,12.5 Z"/></g>
<g><path style="opacity:0.999" fill="#f2dedc" d="M 42.5,28.5 C 41.5,28.5 40.5,28.5 39.5,28.5C 41.3694,22.8919 43.0361,17.2252 44.5,11.5C 45.675,11.281 46.675,11.6143 47.5,12.5C 45.4248,17.7245 43.7581,23.0578 42.5,28.5 Z"/></g>
<g><path style="opacity:0.999" fill="#eed5d3" d="M 25.5,18.5 C 26.5,18.5 27.5,18.5 28.5,18.5C 28.3274,21.1795 27.3274,23.5128 25.5,25.5C 24.6365,23.2287 24.6365,20.8954 25.5,18.5 Z"/></g>
<g><path style="opacity:1" fill="#f1f8fb" d="M 90.5,21.5 C 93.9103,21.3838 95.2436,23.0504 94.5,26.5C 92.8333,26.5 91.1667,26.5 89.5,26.5C 89.366,24.7085 89.6993,23.0418 90.5,21.5 Z"/></g>
<g><path style="opacity:0.993" fill="#f8ce60" d="M 15.5,28.5 C 21.1667,28.5 26.8333,28.5 32.5,28.5C 33.5,28.5 34.5,28.5 35.5,28.5C 36.8333,28.5 38.1667,28.5 39.5,28.5C 40.5,28.5 41.5,28.5 42.5,28.5C 45.5,28.5 48.5,28.5 51.5,28.5C 52.5,28.5 53.5,28.5 54.5,28.5C 71.1667,28.5 87.8333,28.5 104.5,28.5C 106.167,28.5 107.833,28.5 109.5,28.5C 111.857,28.3367 114.19,28.5034 116.5,29C 117.126,29.7504 117.626,30.5838 118,31.5C 118.5,42.495 118.667,53.495 118.5,64.5C 116.283,65.3686 113.95,65.702 111.5,65.5C 110.833,61.5 110.167,61.5 109.5,65.5C 104.372,65.1115 99.3722,65.6115 94.5,67C 89.0213,72.3062 89.3547,77.3062 95.5,82C 102.833,82.3333 110.167,82.6667 117.5,83C 118.056,83.3826 118.389,83.8826 118.5,84.5C 118.667,95.505 118.5,106.505 118,117.5C 117.283,118.044 116.783,118.711 116.5,119.5C 77.8333,119.5 39.1667,119.5 0.5,119.5C 0.5,118.833 0.166667,118.5 -0.5,118.5C -0.5,89.1667 -0.5,59.8333 -0.5,30.5C 0.28913,30.2172 0.955796,29.7172 1.5,29C 6.1548,28.5008 10.8215,28.3342 15.5,28.5 Z"/></g>
<g><path style="opacity:1" fill="#1d3e73" d="M 51.5,58.5 C 52.0431,58.44 52.3764,58.1067 52.5,57.5C 49.2317,56.513 45.8984,56.1796 42.5,56.5C 42.5,55.8333 42.5,55.1667 42.5,54.5C 47.294,53.9031 51.6273,54.5698 55.5,56.5C 54.8172,60.0198 52.8172,62.5198 49.5,64C 38.0208,65.8542 33.1875,61.0209 35,49.5C 40.8483,40.8654 47.3483,40.3654 54.5,48C 53.1667,48.6667 51.8333,48.6667 50.5,48C 45.4097,44.2181 41.243,45.0514 38,50.5C 36.5867,56.924 39.0867,60.924 45.5,62.5C 48.217,62.1481 50.217,60.8147 51.5,58.5 Z"/></g>
<g><path style="opacity:1" fill="#244172" d="M 77.5,43.5 C 78.5,43.5 79.5,43.5 80.5,43.5C 80.5,45.1667 80.5,46.8333 80.5,48.5C 81.5,48.5 82.5,48.5 83.5,48.5C 83.5,49.5 83.5,50.5 83.5,51.5C 82.5,51.5 81.5,51.5 80.5,51.5C 80.5,55.8333 80.5,60.1667 80.5,64.5C 79.5,64.5 78.5,64.5 77.5,64.5C 77.9816,59.4674 77.3149,54.6341 75.5,50C 77.0028,48.0786 77.6695,45.912 77.5,43.5 Z"/></g>
<g><path style="opacity:1" fill="#1d3e73" d="M 62.5,48.5 C 69.984,47.2141 73.984,50.2141 74.5,57.5C 70.1161,57.1744 65.7828,57.5078 61.5,58.5C 64.5262,63.4622 68.0262,63.7956 72,59.5C 72.5,59.8333 73,60.1667 73.5,60.5C 68.7513,65.809 63.918,65.809 59,60.5C 57.5934,55.6427 58.76,51.6427 62.5,48.5 Z"/></g>
<g><path style="opacity:1" fill="#f0cc62" d="M 63.5,51.5 C 66.9079,50.828 69.5745,51.828 71.5,54.5C 68.1667,55.8333 64.8333,55.8333 61.5,54.5C 62.1925,53.4822 62.8592,52.4822 63.5,51.5 Z"/></g>
<g><path style="opacity:1" fill="#757d6b" d="M 42.5,54.5 C 46.97,53.5139 51.6367,53.1805 56.5,53.5C 56.7373,54.791 56.404,55.791 55.5,56.5C 51.6273,54.5698 47.294,53.9031 42.5,54.5 Z"/></g>
<g><path style="opacity:1" fill="#949169" d="M 42.5,56.5 C 45.8984,56.1796 49.2317,56.513 52.5,57.5C 52.3764,58.1067 52.0431,58.44 51.5,58.5C 48.5,57.8333 45.5,57.1667 42.5,56.5 Z"/></g>
<g><path style="opacity:1" fill="#da8845" d="M 118.5,64.5 C 118.833,64.5 119.167,64.5 119.5,64.5C 119.5,71.1667 119.5,77.8333 119.5,84.5C 119.167,84.5 118.833,84.5 118.5,84.5C 118.389,83.8826 118.056,83.3826 117.5,83C 110.167,82.6667 102.833,82.3333 95.5,82C 89.3547,77.3062 89.0213,72.3062 94.5,67C 99.3722,65.6115 104.372,65.1115 109.5,65.5C 110.167,61.5 110.833,61.5 111.5,65.5C 113.95,65.702 116.283,65.3686 118.5,64.5 Z"/></g>
<g><path style="opacity:1" fill="#667582" d="M 96.5,68.5 C 103.282,67.1247 106.448,69.7913 106,76.5C 102,81.8333 98,81.8333 94,76.5C 93.0182,73.2253 93.8515,70.5586 96.5,68.5 Z"/></g>
<g><path style="opacity:1" fill="#375570" d="M 50.5,79.5 C 48.5,79.5 46.5,79.5 44.5,79.5C 43.8745,86.5837 44.5411,93.2504 46.5,99.5C 45.791,100.404 44.791,100.737 43.5,100.5C 43.5,93.1667 43.5,85.8333 43.5,78.5C 46.0593,78.1984 48.3926,78.5318 50.5,79.5 Z"/></g>
<g><path style="opacity:1" fill="#133a73" d="M 50.5,79.5 C 52.3904,79.2965 53.8904,79.9632 55,81.5C 56.6581,88.6742 53.8247,92.0076 46.5,91.5C 46.5,94.1667 46.5,96.8333 46.5,99.5C 44.5411,93.2504 43.8745,86.5837 44.5,79.5C 46.5,79.5 48.5,79.5 50.5,79.5 Z"/></g>
<g><path style="opacity:1" fill="#e9c762" d="M 46.5,81.5 C 51.663,81.1068 53.3297,83.2734 51.5,88C 49.8659,88.4935 48.1992,88.6602 46.5,88.5C 46.5,86.1667 46.5,83.8333 46.5,81.5 Z"/></g>
<g><path style="opacity:1" fill="#214072" d="M 29.5,83.5 C 36.7299,83.0674 40.3966,86.4008 40.5,93.5C 36.1539,93.3343 31.8206,93.501 27.5,94C 30.3326,98.1094 33.8326,98.6094 38,95.5C 39.3636,97.6034 38.5302,99.1034 35.5,100C 25.6228,100.441 22.4561,95.941 26,86.5C 27.5185,85.8366 28.6851,84.8366 29.5,83.5 Z"/></g>
<g><path style="opacity:1" fill="#244072" d="M 74.5,84.5 C 74.8275,89.544 74.4941,94.544 73.5,99.5C 72.3132,98.3473 71.3132,98.3473 70.5,99.5C 60.8852,101.383 57.0518,97.3829 59,87.5C 62.4482,83.2091 66.4482,82.5424 71,85.5C 72.0113,84.6634 73.1779,84.33 74.5,84.5 Z"/></g>
<g><path style="opacity:1" fill="#7a816b" d="M 74.5,84.5 C 75.4881,89.6405 75.8214,94.9738 75.5,100.5C 73.7085,100.634 72.0418,100.301 70.5,99.5C 71.3132,98.3473 72.3132,98.3473 73.5,99.5C 74.4941,94.544 74.8275,89.544 74.5,84.5 Z"/></g>
<g><path style="opacity:1" fill="#264272" d="M 77.5,85.5 C 78.5417,84.2089 79.7083,84.2089 81,85.5C 82.3333,88.8333 83.6667,92.1667 85,95.5C 86.3333,92.1667 87.6667,88.8333 89,85.5C 90.1827,84.269 91.3493,84.269 92.5,85.5C 89.8333,91.8333 87.1667,98.1667 84.5,104.5C 83.675,105.386 82.675,105.719 81.5,105.5C 81.4772,103.4 82.1439,101.567 83.5,100C 81.7671,94.9451 79.7671,90.1117 77.5,85.5 Z"/></g>
<g><path style="opacity:1" fill="#f0cb62" d="M 36.5,88.5 C 35.6661,89.7479 34.3328,90.4146 32.5,90.5C 30.6672,90.4146 29.3339,89.7479 28.5,88.5C 31.1667,85.8333 33.8333,85.8333 36.5,88.5 Z"/></g>
<g><path style="opacity:1" fill="#f0cc62" d="M 64.5,86.5 C 71.0303,86.2435 73.197,89.2435 71,95.5C 63.4784,99.3249 60.4784,96.9916 62,88.5C 62.9947,87.9341 63.828,87.2674 64.5,86.5 Z"/></g>
<g><path style="opacity:1" fill="#9c9668" d="M 28.5,88.5 C 29.3339,89.7479 30.6672,90.4146 32.5,90.5C 34.3328,90.4146 35.6661,89.7479 36.5,88.5C 37.404,89.209 37.7373,90.209 37.5,91.5C 34.1667,91.5 30.8333,91.5 27.5,91.5C 27.2627,90.209 27.596,89.209 28.5,88.5 Z"/></g>
</svg>
