<svg xmlns="http://www.w3.org/2000/svg" viewBox="0 0 160 103">
    <g fill="none" fill-rule="nonzero">
        <path fill="#E5E5E5"
              d="M145.692 0H11.312c-.968 0-2.031.097-2.998.29-.967.193-1.933.483-2.9.967-.87.387-1.74 1.063-2.417 1.74-.677.677-1.353 1.547-1.74 2.417-.484.87-.774 1.837-.967 2.9-.193.967-.193 2.03-.29 2.997V91.07c0 .967.097 2.03.29 2.997.193.967.483 1.934.967 2.9.483.87 1.063 1.74 1.74 2.418.677.676 1.547 1.353 2.417 1.74.87.483 1.837.773 2.9.967.967.193 2.03.193 2.997.29H148.69c.967 0 2.03-.097 2.997-.29.967-.194 1.933-.484 2.9-.967.87-.484 1.74-1.064 2.417-1.74.677-.677 1.353-1.547 1.74-2.417.484-.87.774-1.837.967-2.9.193-.967.193-2.03.29-2.998V11.311c0-.967-.097-2.03-.29-2.997-.193-.967-.483-1.933-.967-2.9-.483-.87-1.063-1.74-1.74-2.417-.677-.677-1.547-1.353-2.417-1.74-.87-.484-1.837-.774-2.9-.967-.967-.193-2.03-.193-2.997-.29h-2.997Z"/>
        <path fill="#FFF"
              d="M145.692 3.384h2.997c.773 0 1.643.096 2.513.193.774.097 1.354.29 1.934.58.58.29 1.063.677 1.547 1.16.483.484.87.967 1.16 1.547.29.58.483 1.16.58 1.934.193.87.193 1.74.193 2.513V91.07c0 .774-.096 1.644-.193 2.514a6.417 6.417 0 0 1-.58 1.934c-.29.58-.677 1.063-1.16 1.546-.484.484-.967.87-1.547 1.16-.58.29-1.16.484-1.934.58-.87.194-1.74.194-2.513.194H11.31c-.677 0-1.643-.097-2.513-.193-.677-.097-1.354-.29-1.934-.677-.58-.29-1.063-.677-1.547-1.16-.483-.484-.87-.967-1.16-1.547a5.674 5.674 0 0 1-.58-1.934c-.193-.87-.193-1.74-.193-2.513V11.31c0-.773.096-1.643.193-2.513.097-.677.29-1.354.58-1.934.29-.58.677-1.063 1.16-1.547.484-.483.967-.87 1.547-1.16.58-.29 1.16-.483 1.934-.58.87-.193 1.74-.193 2.513-.193h134.38"/>
        <path fill="#000"
              d="M77.674 51.107v13.702h-4.347V30.97h11.529c2.78-.058 5.467.997 7.466 2.93a9.418 9.418 0 0 1 3.118 7.141 9.374 9.374 0 0 1-3.118 7.182c-2.017 1.922-4.505 2.883-7.466 2.88h-7.182v.004Zm0-15.97v11.812h7.29a5.746 5.746 0 0 0 4.301-1.75 5.767 5.767 0 0 0 0-8.27 5.67 5.67 0 0 0-4.301-1.796h-7.29v.003ZM105.457 40.9c3.213 0 5.75.86 7.609 2.576 1.859 1.718 2.788 4.072 2.786 7.064v14.27h-4.158v-3.214h-.189c-1.8 2.646-4.194 3.97-7.182 3.97-2.55 0-4.684-.757-6.402-2.269a7.241 7.241 0 0 1-2.576-5.67c0-2.396.906-4.301 2.717-5.716 1.81-1.415 4.228-2.124 7.252-2.127 2.581 0 4.707.472 6.377 1.417v-.994a4.95 4.95 0 0 0-1.795-3.847 6.156 6.156 0 0 0-4.196-1.585c-2.428 0-4.35 1.024-5.764 3.073l-3.83-2.411c2.107-3.024 5.224-4.536 9.351-4.536Zm-5.624 16.822a3.472 3.472 0 0 0 1.442 2.835 5.303 5.303 0 0 0 3.377 1.134 6.93 6.93 0 0 0 4.89-2.03c1.44-1.356 2.16-2.947 2.16-4.772-1.355-1.08-3.245-1.62-5.67-1.62-1.766 0-3.238.426-4.417 1.277-1.19.864-1.782 1.915-1.782 3.176ZM139.72 41.657l-14.515 33.358h-4.488l5.387-11.672-9.545-21.686h4.725l6.899 16.632h.094l6.71-16.632z"/>
        <path fill="#4285F4"
              d="M60.108 48.153a23.165 23.165 0 0 0-.335-3.953H41.44v7.487h10.5a9 9 0 0 1-3.882 5.908v4.86h6.266c3.67-3.383 5.784-8.386 5.784-14.302Z"/>
        <path fill="#34A853"
              d="M41.44 67.15c5.246 0 9.663-1.723 12.884-4.693l-6.266-4.86c-1.744 1.183-3.99 1.858-6.618 1.858-5.07 0-9.374-3.418-10.913-8.024H24.07v5.008A19.44 19.44 0 0 0 41.44 67.15Z"/>
        <path fill="#FBBC04"
              d="M30.527 51.43a11.648 11.648 0 0 1 0-7.44v-5.01H24.07a19.44 19.44 0 0 0 0 17.46l6.456-5.01Z"/>
        <path fill="#EA4335"
              d="M41.44 35.965a10.554 10.554 0 0 1 7.457 2.916l5.549-5.549A18.679 18.679 0 0 0 41.44 28.27a19.44 19.44 0 0 0-17.37 10.71l6.457 5.01c1.539-4.607 5.842-8.025 10.913-8.025Z"/>
    </g>
</svg>
