<svg id="Layer_1" height="300" viewBox="0 0 100 100" width="300" xmlns="http://www.w3.org/2000/svg" data-name="Layer 1" version="1.1" xmlns:xlink="http://www.w3.org/1999/xlink" xmlns:svgjs="http://svgjs.dev/svgjs"><g transform="matrix(1,0,0,1,0,0)"><path d="m91.49 55.61v23.13a6.88 6.88 0 0 1 -6.88 6.87h-69.95a6.88 6.88 0 0 1 -6.87-6.87v-23.13h23.85l1.36 2.94a7.7 7.7 0 0 0 7 4.45h19.32a7.69 7.69 0 0 0 7-4.46l1.36-2.94zm-30.32 21.07v-6.36a1 1 0 0 0 -1-1h-21.06a1 1 0 0 0 -1 1v6.36a1 1 0 0 0 1 1h21.06a1 1 0 0 0 1-1z" fill="#a9aec2" fill-opacity="1" data-original-color="#000000ff" stroke="none" stroke-opacity="1"/><path d="m87.33 47.54 3.44 6.07h-10.77v-2a20.15 20.15 0 0 0 7.33-4.07z" fill="#a9aec2" fill-opacity="1" data-original-color="#000000ff" stroke="none" stroke-opacity="1"/><path d="m74.15 14.39a18.06 18.06 0 1 1 -18.05 18.06 18.08 18.08 0 0 1 18.05-18.06zm6.9 14.66c.36-3.3-1.41-7.25-5.36-8.06a7.91 7.91 0 0 0 -6.49 1.39 4.63 4.63 0 0 0 -2 3.18 1 1 0 0 0 1 1.05 1 1 0 0 0 1-.95 2.89 2.89 0 0 1 1.22-1.66 5.86 5.86 0 0 1 4.86-1c2.81.58 4 3.46 3.78 5.89-.22 2-1.5 3.64-4 5a5.48 5.48 0 0 0 -3.13 5.11 1 1 0 0 0 1 1 1 1 0 0 0 1-1 3.48 3.48 0 0 1 2-3.32c3.16-1.76 4.83-3.91 5.12-6.63zm-7.05 14.04v-.33a1 1 0 0 0 -2 0v.33a1 1 0 0 0 2 0z" fill="#a9aec2" fill-opacity="1" data-original-color="#000000ff" stroke="none" stroke-opacity="1"/><path d="m78 52.14v1.47h-11a1 1 0 0 0 -.91.58l-1.62 3.52a5.69 5.69 0 0 1 -5.15 3.29h-19.32a5.68 5.68 0 0 1 -5.15-3.3l-1.62-3.52a1 1 0 0 0 -.91-.58h-11v-6.71h38.94a20 20 0 0 0 13.89 5.62 20.66 20.66 0 0 0 3.85-.37z" fill="#a9aec2" fill-opacity="1" data-original-color="#000000ff" stroke="none" stroke-opacity="1"/><path d="m40.11 71.32h19.06v4.36h-19.06z" fill="#a9aec2" fill-opacity="1" data-original-color="#000000ff" stroke="none" stroke-opacity="1"/><path d="m58.45 44.89h-33.34v-9.24h29.27a19.86 19.86 0 0 0 4.07 9.24z" fill="#a9aec2" fill-opacity="1" data-original-color="#000000ff" stroke="none" stroke-opacity="1"/><path d="m29.24 24.8h26.38a19.89 19.89 0 0 0 -1.52 7.65c0 .41 0 .8.06 1.2h-24.92z" fill="#a9aec2" fill-opacity="1" data-original-color="#000000ff" stroke="none" stroke-opacity="1"/><path d="m27.24 29.15v4.5h-3.13a1 1 0 0 0 -1 1v10.24h-2.78a1 1 0 0 0 -1 1v7.72h-10.82l12-21.23a6.38 6.38 0 0 1 5.54-3.23z" fill="#a9aec2" fill-opacity="1" data-original-color="#000000ff" stroke="none" stroke-opacity="1"/></g></svg>