<svg xmlns="http://www.w3.org/2000/svg" xmlns:xlink="http://www.w3.org/1999/xlink" xmlns:svgjs="http://svgjs.dev/svgjs"
     enable-background="new 0 0 520 520" height="45px" viewBox="0 0 520 520" width="45px" version="1.1">
    <g transform="matrix(1,0,0,1,0,0)">
        <g id="_x37_8_x5F_4_-_22_x2C__Archive_x2C__cross_x2C__file_x2C__folder">
            <g>
                <g id="XMLID_3383_">
                    <g id="XMLID_3465_">
                        <path d="m40.005 395.001c-.352 0-.709-.037-1.067-.115-2.699-.587-4.411-3.249-3.824-5.948l50-230c.5-2.298 2.534-3.938 4.886-3.938h350c1.487 0 2.897.662 3.848 1.807s1.341 2.653 1.066 4.115l-30 160c-.508 2.714-3.121 4.502-5.836 3.992-2.714-.509-4.501-3.121-3.992-5.836l28.891-154.078h-339.947l-49.144 226.063c-.509 2.339-2.579 3.938-4.881 3.938z"
                              fill="#a9afc2" fill-opacity="1" data-original-color="#000000ff" stroke="none"
                              stroke-opacity="1"/>
                    </g>
                    <g id="XMLID_3464_">
                        <path d="m340.001 395h-300.001c-2.761 0-5-2.238-5-5v-330c0-2.761 2.239-5 5-5h100c1.756 0 3.384.921 4.288 2.428l28.544 47.572h217.169c2.762 0 5 2.239 5 5v50c0 2.761-2.238 5-5 5s-5-2.239-5-5v-45h-215.001c-1.756 0-3.384-.921-4.288-2.428l-28.543-47.572h-92.169v320h295c2.762 0 5 2.238 5 5s-2.237 5-4.999 5z"
                              fill="#a9afc2" fill-opacity="1" data-original-color="#000000ff" stroke="none"
                              stroke-opacity="1"/>
                    </g>
                    <g id="XMLID_3463_">
                        <path d="m410.001 465c-41.355 0-75-33.645-75-75s33.645-75 75-75 75 33.645 75 75-33.645 75-75 75zm0-140c-35.841 0-65 29.159-65 65s29.159 65 65 65 65-29.159 65-65-29.159-65-65-65z"
                              fill="#a9afc2" fill-opacity="1" data-original-color="#000000ff" stroke="none"
                              stroke-opacity="1"/>
                    </g>
                    <g id="XMLID_3462_">
                        <path d="m260.001 355h-110.001c-2.761 0-5-2.238-5-5v-40c0-2.762 2.239-5 5-5h110c2.762 0 5 2.238 5 5v40c.001 2.762-2.237 5-4.999 5zm-105.001-10h100v-30h-100z"
                              fill="#a9afc2" fill-opacity="1" data-original-color="#000000ff" stroke="none"
                              stroke-opacity="1"/>
                    </g>
                    <g id="XMLID_3461_">
                        <path d="m260.001 265h-110.001c-2.761 0-5-2.238-5-5s2.239-5 5-5h110c2.762 0 5 2.238 5 5s-2.237 5-4.999 5z"
                              fill="#a9afc2" fill-opacity="1" data-original-color="#000000ff" stroke="none"
                              stroke-opacity="1"/>
                    </g>
                    <g id="XMLID_3460_">
                        <path d="m260.001 235h-110.001c-2.761 0-5-2.239-5-5s2.239-5 5-5h110c2.762 0 5 2.239 5 5s-2.237 5-4.999 5z"
                              fill="#a9afc2" fill-opacity="1" data-original-color="#000000ff" stroke="none"
                              stroke-opacity="1"/>
                    </g>
                    <g id="XMLID_3459_">
                        <path d="m380.001 425c-1.279 0-2.56-.488-3.535-1.465-1.953-1.952-1.953-5.118 0-7.07l60-60c1.951-1.953 5.119-1.953 7.07 0 1.953 1.952 1.953 5.118 0 7.07l-60 60c-.975.977-2.256 1.465-3.535 1.465z"
                              fill="#a9afc2" fill-opacity="1" data-original-color="#000000ff" stroke="none"
                              stroke-opacity="1"/>
                    </g>
                    <g id="XMLID_3442_">
                        <path d="m440.001 425c-1.279 0-2.56-.488-3.535-1.465l-60-60c-1.953-1.952-1.953-5.118 0-7.07 1.951-1.953 5.119-1.953 7.07 0l60 60c1.953 1.952 1.953 5.118 0 7.07-.975.977-2.256 1.465-3.535 1.465z"
                              fill="#a9afc2" fill-opacity="1" data-original-color="#000000ff" stroke="none"
                              stroke-opacity="1"/>
                    </g>
                    <g id="XMLID_3441_">
                        <path d="m380.001 425c-1.279 0-2.56-.488-3.535-1.465-1.953-1.952-1.953-5.118 0-7.07l60-60c1.951-1.953 5.119-1.953 7.07 0 1.953 1.952 1.953 5.118 0 7.07l-60 60c-.975.977-2.256 1.465-3.535 1.465z"
                              fill="#a9afc2" fill-opacity="1" data-original-color="#000000ff" stroke="none"
                              stroke-opacity="1"/>
                    </g>
                    <g id="XMLID_3434_">
                        <path d="m440.001 425c-1.279 0-2.56-.488-3.535-1.465l-60-60c-1.953-1.952-1.953-5.118 0-7.07 1.951-1.953 5.119-1.953 7.07 0l60 60c1.953 1.952 1.953 5.118 0 7.07-.975.977-2.256 1.465-3.535 1.465z"
                              fill="#a9afc2" fill-opacity="1" data-original-color="#000000ff" stroke="none"
                              stroke-opacity="1"/>
                    </g>
                    <g id="XMLID_3432_">
                        <path d="m380.001 425c-1.279 0-2.56-.488-3.535-1.465-1.953-1.952-1.953-5.118 0-7.07l60-60c1.951-1.953 5.119-1.953 7.07 0 1.953 1.952 1.953 5.118 0 7.07l-60 60c-.975.977-2.256 1.465-3.535 1.465z"
                              fill="#a9afc2" fill-opacity="1" data-original-color="#000000ff" stroke="none"
                              stroke-opacity="1"/>
                    </g>
                    <g id="XMLID_3431_">
                        <path d="m440.001 425c-1.279 0-2.56-.488-3.535-1.465l-60-60c-1.953-1.952-1.953-5.118 0-7.07 1.951-1.953 5.119-1.953 7.07 0l60 60c1.953 1.952 1.953 5.118 0 7.07-.975.977-2.256 1.465-3.535 1.465z"
                              fill="#a9afc2" fill-opacity="1" data-original-color="#000000ff" stroke="none"
                              stroke-opacity="1"/>
                    </g>
                    <g id="XMLID_3429_">
                        <path d="m380.001 425c-1.279 0-2.56-.488-3.535-1.465-1.953-1.952-1.953-5.118 0-7.07l60-60c1.951-1.953 5.119-1.953 7.07 0 1.953 1.952 1.953 5.118 0 7.07l-60 60c-.975.977-2.256 1.465-3.535 1.465z"
                              fill="#a9afc2" fill-opacity="1" data-original-color="#000000ff" stroke="none"
                              stroke-opacity="1"/>
                    </g>
                    <g id="XMLID_3428_">
                        <path d="m440.001 425c-1.279 0-2.56-.488-3.535-1.465l-60-60c-1.953-1.952-1.953-5.118 0-7.07 1.951-1.953 5.119-1.953 7.07 0l60 60c1.953 1.952 1.953 5.118 0 7.07-.975.977-2.256 1.465-3.535 1.465z"
                              fill="#a9afc2" fill-opacity="1" data-original-color="#000000ff" stroke="none"
                              stroke-opacity="1"/>
                    </g>
                    <g id="XMLID_3409_">
                        <path d="m380.001 425c-1.279 0-2.56-.488-3.535-1.465-1.953-1.952-1.953-5.118 0-7.07l60-60c1.951-1.953 5.119-1.953 7.07 0 1.953 1.952 1.953 5.118 0 7.07l-60 60c-.975.977-2.256 1.465-3.535 1.465z"
                              fill="#a9afc2" fill-opacity="1" data-original-color="#000000ff" stroke="none"
                              stroke-opacity="1"/>
                    </g>
                    <g id="XMLID_3408_">
                        <path d="m440.001 425c-1.279 0-2.56-.488-3.535-1.465l-60-60c-1.953-1.952-1.953-5.118 0-7.07 1.951-1.953 5.119-1.953 7.07 0l60 60c1.953 1.952 1.953 5.118 0 7.07-.975.977-2.256 1.465-3.535 1.465z"
                              fill="#a9afc2" fill-opacity="1" data-original-color="#000000ff" stroke="none"
                              stroke-opacity="1"/>
                    </g>
                    <g id="XMLID_3407_">
                        <path d="m380.001 425c-1.279 0-2.56-.488-3.535-1.465-1.953-1.952-1.953-5.118 0-7.07l60-60c1.951-1.953 5.119-1.953 7.07 0 1.953 1.952 1.953 5.118 0 7.07l-60 60c-.975.977-2.256 1.465-3.535 1.465z"
                              fill="#a9afc2" fill-opacity="1" data-original-color="#000000ff" stroke="none"
                              stroke-opacity="1"/>
                    </g>
                    <g id="XMLID_3406_">
                        <path d="m440.001 425c-1.279 0-2.56-.488-3.535-1.465l-60-60c-1.953-1.952-1.953-5.118 0-7.07 1.951-1.953 5.119-1.953 7.07 0l60 60c1.953 1.952 1.953 5.118 0 7.07-.975.977-2.256 1.465-3.535 1.465z"
                              fill="#a9afc2" fill-opacity="1" data-original-color="#000000ff" stroke="none"
                              stroke-opacity="1"/>
                    </g>
                    <g id="XMLID_3405_">
                        <path d="m380.001 425c-1.279 0-2.56-.488-3.535-1.465-1.953-1.952-1.953-5.118 0-7.07l60-60c1.951-1.953 5.119-1.953 7.07 0 1.953 1.952 1.953 5.118 0 7.07l-60 60c-.975.977-2.256 1.465-3.535 1.465z"
                              fill="#a9afc2" fill-opacity="1" data-original-color="#000000ff" stroke="none"
                              stroke-opacity="1"/>
                    </g>
                    <g id="XMLID_3404_">
                        <path d="m440.001 425c-1.279 0-2.56-.488-3.535-1.465l-60-60c-1.953-1.952-1.953-5.118 0-7.07 1.951-1.953 5.119-1.953 7.07 0l60 60c1.953 1.952 1.953 5.118 0 7.07-.975.977-2.256 1.465-3.535 1.465z"
                              fill="#a9afc2" fill-opacity="1" data-original-color="#000000ff" stroke="none"
                              stroke-opacity="1"/>
                    </g>
                    <g id="XMLID_3403_">
                        <path d="m380.001 425c-1.279 0-2.56-.488-3.535-1.465-1.953-1.952-1.953-5.118 0-7.07l60-60c1.951-1.953 5.119-1.953 7.07 0 1.953 1.952 1.953 5.118 0 7.07l-60 60c-.975.977-2.256 1.465-3.535 1.465z"
                              fill="#a9afc2" fill-opacity="1" data-original-color="#000000ff" stroke="none"
                              stroke-opacity="1"/>
                    </g>
                    <g id="XMLID_3402_">
                        <path d="m440.001 425c-1.279 0-2.56-.488-3.535-1.465l-60-60c-1.953-1.952-1.953-5.118 0-7.07 1.951-1.953 5.119-1.953 7.07 0l60 60c1.953 1.952 1.953 5.118 0 7.07-.975.977-2.256 1.465-3.535 1.465z"
                              fill="#a9afc2" fill-opacity="1" data-original-color="#000000ff" stroke="none"
                              stroke-opacity="1"/>
                    </g>
                    <g id="XMLID_3389_">
                        <path d="m430.001 215h-70c-2.762 0-5-2.239-5-5s2.238-5 5-5h70c2.762 0 5 2.239 5 5s-2.238 5-5 5z"
                              fill="#a9afc2" fill-opacity="1" data-original-color="#000000ff" stroke="none"
                              stroke-opacity="1"/>
                    </g>
                    <g id="XMLID_3388_">
                        <path d="m420.001 255h-30c-2.762 0-5-2.239-5-5s2.238-5 5-5h30c2.762 0 5 2.239 5 5s-2.238 5-5 5z"
                              fill="#a9afc2" fill-opacity="1" data-original-color="#000000ff" stroke="none"
                              stroke-opacity="1"/>
                    </g>
                    <g id="XMLID_3386_">
                        <path d="m60 485c-13.785 0-25-11.215-25-25s11.215-25 25-25 25 11.215 25 25-11.214 25-25 25zm0-40c-8.271 0-15 6.729-15 15s6.729 15 15 15 15-6.729 15-15-6.729-15-15-15z"
                              fill="#a9afc2" fill-opacity="1" data-original-color="#000000ff" stroke="none"
                              stroke-opacity="1"/>
                    </g>
                    <g id="XMLID_3385_">
                        <path d="m460.001 85c-13.785 0-25-11.215-25-25s11.215-25 25-25 25 11.215 25 25-11.215 25-25 25zm0-40c-8.271 0-15 6.729-15 15s6.729 15 15 15 15-6.729 15-15-6.729-15-15-15z"
                              fill="#a9afc2" fill-opacity="1" data-original-color="#000000ff" stroke="none"
                              stroke-opacity="1"/>
                    </g>
                </g>
            </g>
        </g>
    </g>
</svg>