<svg xmlns="http://www.w3.org/2000/svg"
     xmlns:xlink="http://www.w3.org/1999/xlink"
     enable-background="new 0 0 48 48"
     height="48px"
     id="Layer_3" version="1.1"
     viewBox="0 0 48 48"
     width="48px" xml:space="preserve"><g>
                                                        <polygon fill="#241F20"
                                                                 points="32.551,25.812 32.562,25.812 32.559,25.805  "/>
                                                        <polygon fill="#241F20"
                                                                 points="32.562,25.812 37.179,25.812 38.2,19.907 38.031,20.094  "/>
                                                        <path d="M0,9v5.75v2.211v13.445v4.031V35v4h48v-4v-0.562v-4.031v-0.381v-0.088V25.75v-11V14V9H0z M17.685,24.162   c-0.206,0.367-0.493,0.783-0.841,1.025c-0.651,0.453-1.944,0.648-3.344,0.681v0.007H9.692l-0.849,5.188H6.562l2.281-13.938h1.125   h1.156h2.562h0.688h1.344c0,0,1.469,0.062,1.969,0.469s1.062,1,0.906,2.219c-0.091,0.706-0.264,1.802-0.395,2.606   C18.029,23.463,17.702,24.129,17.685,24.162z M20.781,28.875h8.25l-0.406,2.188H18.219c0,0,0.344-3.688,1-4.75   c0.603-0.975,1.215-1.502,2.613-1.92l-0.002-0.002c0,0,0.094-0.026,0.252-0.07c0.047-0.013,0.088-0.026,0.137-0.039   c0.007-0.002,0.011-0.001,0.017-0.002c0.805-0.221,2.595-0.706,3.358-0.873c1-0.219,2.062-0.656,2.281-1.281   c0.185-0.526,0.328-1.679,0.31-2.17c-0.014-0.953-1.31-0.893-1.31-0.893s-1.969-0.062-3.062,0s-1.531,0.875-1.688,1.438   s-0.25,1.406-0.25,1.406H19.75c0,0,0.125-1.969,0.562-2.781s1.438-2.188,3.469-2.188s3.5,0,3.5,0s1.531,0,2.344,0.781   s0.75,2.344,0.75,2.344l-0.004-0.002c0.002,0.654-0.222,1.568-0.527,2.846c-0.344,1.438-2.25,2-2.25,2l-2.303,0.68   c-0.005,0.002-0.005,0.006-0.01,0.008c-0.469,0.131-1.46,0.434-2.555,0.73c-0.005,0.002-0.007,0.002-0.012,0.004   c-1.203,0.34-1.601,1.008-1.702,1.225C20.769,28.193,20.781,28.875,20.781,28.875z M40.938,27.938h-1.956l-0.502,3.125h-2.209   l0.541-3.125h-7.093l0.375-2.219l8.031-8.594h2.594l-1.396,8.688h2.114L40.938,27.938z"
                                                              fill="#241F20"/>
                                                        <path d="M15.906,19.344c-0.594-0.156-1.688-0.188-1.688-0.188h-3.426l-0.763,4.656h3.063H13.5h0.781   c0,0,1.344,0.03,1.562-0.688c0.219-0.719,0.531-2.781,0.531-2.781S16.5,19.5,15.906,19.344z"
                                                              fill="#241F20"/>
                                                    </g></svg>