<svg xmlns="http://www.w3.org/2000/svg" viewBox="0 0 1496 820"><defs><linearGradient id="b" x1="-310.36" x2="1242.78" y1="701.44" y2="686.02" gradientTransform="rotate(180 1261.74 652.48)" gradientUnits="userSpaceOnUse"><stop offset="0" stop-color="#00c5e9"/><stop offset=".07" stop-color="#00bcea"/><stop offset=".2" stop-color="#00a3ee"/><stop offset=".35" stop-color="#007bf5"/><stop offset=".53" stop-color="#0044fe"/><stop offset=".56" stop-color="#003bff"/><stop offset=".6" stop-color="#083cff"/><stop offset=".67" stop-color="#1f3fff"/><stop offset=".75" stop-color="#4343ff"/><stop offset=".85" stop-color="#7649ff"/><stop offset=".95" stop-color="#b750ff"/><stop offset="1" stop-color="#d654ff"/></linearGradient><clipPath id="a"><path fill="none" d="M-1504-880h3000V820h-3000z"/></clipPath></defs><g clip-path="url(#a)"><path fill="url(#b)" d="M1792.41 879.05v-14.63L1781 871v14.64zm295.16-.91 5.37-3.1-5.37-3.1v-7.52l-5.72 3.31-5.72-3.31v14.63l11.44 6.61zM1338.23 623v7.5l5.72-3.29 5.72 3.3V623l5.36-3.1-5.36-3.1v-7.5l-5.72 3.31-5.72-3.31v7.52l-5.37 3.1zM1781 367.89v7.52l11.44-6.6v-14.63l-5.72 3.31-5.72-3.31v7.52l-5.37 3.1zM157.58 454v421.75H169V630.53l136.14 78.6v169.92l147.58 85.2V1121l-139-80.25-5.72 9.9 144.72 83.56L606 1222.68l147.58-85.21 147.59 85.21 147.58-85.21 147.58 85.21 147.67-85.21 147.58 85.21 147.58-85.21 147.58 85.21 147.58-85.21 141.47 81.67 6.11 3.54 5.33-3.08 142.25-82.13 147.52 85.21 147.58-85.21 147.59 85.21 153.3-88.51V747.94H2814v209.21l-141.86 81.9-5.72-3.31-136.15-78.59V787.23l-141.42-81.65.8-.45 129.18-74.6 11.44-6.6v-13.71l-16.8 9.7-130.78 75.49-5.72 3.31-5.72-3.31-130.77-75.49-16.81-9.7v13.71l11.44 6.6 129.19 74.6.8.45-135.71 78.35L2087.57 702V538.71l6.95-4 129.19-74.59v.51l5.72-3.31 5.72 3.31v-.51l129.2 74.59L2377 542l12.67-7.31 135.72-78.36 10.64-6.14-17.17-9.91-130.76-75.48-5.37-3.1V185.18l-8.58 5L2263.47 254l-39.76 23v169.91l-141.86 81.9-5.72-3.31-130-75 130-75 11.44-6.6V198.4l6.52-3.77 129.62-74.84 8.58-5-5.72-9.91-7.79 4.5-131.21 75.74-5.72 3.31-5.72-3.31-131.2-75.74-10.66-6.16-5.72 3.31-4.94 2.85-131.2 75.74-5.72 3.31-5.72-3.31-131.2-75.74-10.66-6.16-10.65 6.16-131.21 75.75-17.16 9.91L1378 254l-39.75 23v163.3l-136.14-78.6V190.87l.35-157V2.31h-11.44v18l-.37 165-131.21-75.75-10.65-6.16-10.67 6.16-131.19 75.62-11.44 6.6v177l11.44 6.6L1036.11 450l.8.45-135.7 78.35-141.87-81.9V280.3H747.9v166.62l-6.12 3.55 6.12 3.53v162.82l-136.14 78.6V532.11l-141.42-81.65 141.42-81.65V185.18l-8.58 5-144.72 83.51-5.72-3.31-139-80.24-8.58-5-141.86-81.86L10 191.78v177zm2354.77-4.26.8.46L2377 528.81l-135.7-78.35.8-.45 129.18-74.6 6.16-3.55 5.28 3.05zm-277.2-166.16 6.95-4 27.09-15.58 102.1-59v156.7l-5.36 3.1-130.78 75.5zm-1930 412.33L169 617.32v-157.2l136.14 78.59zm147.59 255.14L316.6 872.44v-157.2l136.14 78.59zm0-334.23-136.14 78.6V538.71l136.14-78.59zm5.72 167.11-135.7-78.35 135.7-78.35 135.71 78.35-131.3 75.81zm141.86 422.24-136.14-78.61v-157.2L600.32 1049zm147.58-78.61-136.14 78.61V1049l136.14-78.6zm306.61-667.44 136.14 78.59 5.72 3.31 12.66-7.31 129.2-74.59v156.7l-5.37 3.1-130.77 75.49-5.72 3.31-5.72-3.31-136.14-78.59zm442.74-91.31V205l129.19 74.59 7 4v163.32l-141.86 81.9-135.71-78.35.79-.45 129.2-74.6zM1792.41 205l129.2 74.59 6.94 4v163.33l-6.12 3.55 6.12 3.54v162.81l-5.36 3.1-130.78 75.5v-160h-5.72l2.86-4.95-138.55-80 .79-.45L1781 375.41l11.44-6.6zM2070 705.58l-135.71 78.35-135.7-78.35.8-.45 129.18-74.6 5.72-3.3 5.72 3.3 129.2 74.6zm-425.15 245V793.83L1781 715.24v156.7zm-584.19 10.12 130-75 5.72-3.31 5.72 3.31 129.18 74.59.8.45-135.7 78.35-5.72-3.31zm-165.17 75-130-75 130-75 5.72-3.31 5.72 3.31 129.18 74.59.8.45-135.7 78.35zm11.44-320.5 129.19 74.59 7 4v156.75L912.29 875l-5.36-3zM1209 705.13l129-74.47.23-.14 5.72-3.29 5.72 3.3 56 32.34 74 42.71-130 75-4.36 2.52-7.08 4.08v163.36L1207.45 875l-5.36-3.1V709.14zm140.63-245 129.19 74.59 7 4v156.7L1355 619.92l-5.36-3.1zM1781 702l-141.86 81.9-135.74-78.32.8-.45 129.19-74.6 11.44-6.6V460.12L1774 534.71l6.94 4zm-278.39 173-5.36-3.09V715.24l129.19 74.58 7 4v156.72zm-152.94 75.5V793.83l136.14-78.59V872zm283.72-333.72-136.14 78.6V538.71l136.14-78.59zm-442.74 98.42v156.7l-136.14 78.6V793.83zm165.17 245.5.8-.45 129.19-74.59 5.72-3.31 5.72 3.31 129.18 74.59.8.45-135.7 78.35zm296-681.11L1781 205v156.7l-5.37 3.1-130.77 75.5V283.59zm-468.13 425.54.8.45-135.7 78.35-135.71-78.35.79-.45 134.92-77.9zm-417.84 85 129.64-74.84V872l-5.37 3-130.78 75.5V793.83zm129.64 416.08-136.15-78.6V970.36L895.49 1049zm147.58-78.6-136.14 78.6V1049l136.14-78.6zm147.58 78.61-131.21-75.76-4.93-2.85V970.36l129.63 74.84 6.51 3.76zm11.44 0V1049l6.51-3.76 129.63-74.84v157.2l-4.93 2.85zm283.72 0-131.21-75.75-4.93-2.85V970.36l129.63 74.84 6.51 3.76zm11.44 0V1049l6.51-3.76 129.63-74.84v157.2l-4.93 2.85zm283.72 0-131.21-75.76-4.93-2.85V970.36l129.63 74.84 6.54 3.8zm147.58-78.61-136.14 78.61V1049l136.14-78.6zm147.58 78.61-.36-.21-135.77-78.45v-157.2l136.13 78.6zm5.72-167.12-5.72-3.31L1940 957.15v-6.64l-5.72 3.32-5.72-3.32v6.64l-141.86 81.9L1651 960.7l.81-.45L1781 885.66l11.44-6.61V715.24l129.2 74.59 12.66 7.31 12.67-7.31 129.19-74.59v163.81l11.44 6.61 129.19 74.59.8.45zm5.72 167.12V1049l6.51-3.76 129.63-74.84v157.2l-4.93 2.85zm283.72 0-131.21-75.75-4.93-2.85V970.36l129.63 74.84 6.51 3.76zm-129.18-245.97 129.18-74.59 5.72-3.31 5.72 3.31 130 75-130 75-5.72 3.31-135.7-78.35zm140.62-245 136.14 78.59v156.7L2382.73 872zm136.14 412.32-136.14 78.6V1049l136.14-78.6zm295.17 0-136.14 78.61V1049l136.1-78.64zM2666.46 1049v157.21l-136.15-78.61V970.36zm-431.31-255.17 6.95-4 129.19-74.59V872l-5.36 3.09-130.78 75.5zm-11.44 156.71L2092.94 875l-5.37-3.1V715.24l129.2 74.59 6.94 4zm-154.52-415.83 6.94 4v156.71l-130.77-75.5-5.37-3.1v-156.7zm6.94-173-5.36 3.1L1940 440.3V283.59l7-4L2076.13 205zm-147.58-241.92 5.72-3.31 5.72 3.31 129.62 74.84.8.46-136.14 78.6-136.14-78.6.8-.46zm-295.16 0 5.72-3.31 5.72 3.31 129.62 74.84.8.46-136.14 78.6-136.11-78.6.8-.46zm-283.72 163.8 34-19.64L1485.81 205v156.7l-136.14 78.6zM1331.28 450l.79.45-135.7 78.35-135.71-78.35.8-.45 129.19-74.6 5.72-3.3 5.72 3.3zm-140.63-88.3-5.37 3.1-130.77 75.5V283.59l6.94-4 129.2-74.59zm-147.58-241.91 5.72-3.31 5.72 3.31 129.62 74.84.8.46-136.14 78.6-136.14-78.6.8-.46zm-130.78 245-5.36-3.1V205l129.19 74.59 7 4V440.3zm-5.36 173.91 6.94-4 129.2-74.59v156.7l-5.37 3.1-130.77 75.5zm-147.59-78.58 129.2 74.59 7 4v156.71l-130.78-75.5-5.37-3.1zm-5.72 167.11 134.92 77.9.79.45-135.71 78.35-.78-.46L732 771.42l-114-65.84zm-141.86 88.52v-.51l136.14 78.59v163.32l-141.9 81.9-135.66-78.35 141.42-81.65v-13.71l-147.58 85.2V793.83l21-12.1 115.17-66.49v.51l5.72-3.31zM464.18 283.59 600.32 205v156.7l-136.14 78.6zm0 176.53 136.14 78.59v156.71l-136.14-78.6zM316.6 205l136.14 78.59V440.3L316.6 361.71zm-5.72 167.11 135.71 78.35-135.71 78.35-135.7-78.35zm-5.72-10.4L169 440.3V283.59L305.16 205zM163.3 116.48l136.14 78.61-136.14 78.6-136.14-78.6zM21.44 205l136.14 78.59V440.8L21.44 362.2z" opacity=".08" style="mix-blend-mode:lighten"/></g></svg>