<?xml version="1.0" encoding="UTF-8"?>
<svg id="ai" xmlns="http://www.w3.org/2000/svg" viewBox="0 0 64 56.04">
  <path fill="#ffffff" d="M54.55,9.32C48.37,3.13,40.78,0,32,0S15.64,3.13,9.45,9.32.12,23.1.12,31.87s3.14,16.37,9.33,22.55c3.29,3.29,6.9.94,10.31-1.75l.07-.06.07.05c3.59,2.14,7.66,3.22,12.1,3.22s8.5-1.08,12.1-3.22l.07-.05.07.06c2.22,1.75,4.58,3.37,6.79,3.37,1.28,0,2.43-.53,3.52-1.62,6.19-6.18,9.33-13.77,9.33-22.55s-3.14-16.36-9.33-22.55ZM43.32,52.15c-3.38,1.93-7.19,2.91-11.32,2.91s-7.94-.98-11.32-2.91l-.16-.09.91-.74c3.37-2.75,6.85-5.59,10.57-5.59s7.2,2.84,10.57,5.59l.19.15c.19.16.39.32.58.48l.14.11-.16.09ZM44.23,51.61l-.07-.06c-.35-.28-.71-.57-1.07-.87-3.32-2.7-7.08-5.77-11.09-5.77s-7.78,3.07-11.1,5.78l-.14.11c-.31.26-.62.51-.92.75l-.07.06-.08-.05c-1.43-.92-2.8-2.03-4.07-3.3-4.52-4.51-6.81-10.03-6.81-16.39s2.29-11.87,6.81-16.38c4.51-4.52,10.02-6.8,16.38-6.8s11.87,2.28,16.38,6.8c4.52,4.51,6.81,10.03,6.81,16.38s-2.29,11.87-6.81,16.39c-1.27,1.27-2.64,2.38-4.07,3.3l-.08.05ZM53.97,53.84c-.96.96-1.96,1.34-2.98,1.34-1.95,0-3.98-1.4-5.94-2.92l-.14-.11.15-.1c1.37-.9,2.68-1.99,3.91-3.21,4.67-4.67,7.04-10.38,7.04-16.97s-2.37-12.29-7.04-16.96c-4.68-4.68-10.39-7.05-16.97-7.05s-12.29,2.37-16.97,7.05c-4.67,4.67-7.04,10.38-7.04,16.96s2.37,12.3,7.04,16.97c1.23,1.22,2.54,2.3,3.91,3.21l.15.1-.14.11c-2.99,2.32-6.14,4.36-8.92,1.58C4,47.81.95,40.42.95,31.87s3.05-15.94,9.08-21.97C16.06,3.88,23.45.82,32,.82s15.94,3.06,21.97,9.08c6.03,6.03,9.08,13.42,9.08,21.97s-3.05,15.94-9.08,21.97Z"/>
  <path fill="#ffffff" d="M36.39,13.24h-8.28c-4.66,0-8.44,3.79-8.44,8.45v.89c0,4.65,3.78,8.44,8.44,8.44h8.28c4.66,0,8.44-3.79,8.44-8.44v-.89c0-4.66-3.78-8.45-8.44-8.45ZM44.01,22.58c0,4.2-3.42,7.62-7.62,7.62h-8.28c-4.2,0-7.62-3.42-7.62-7.62v-.89c0-4.2,3.42-7.62,7.62-7.62h8.28c4.2,0,7.62,3.42,7.62,7.62v.89Z"/>
  <path fill="#ffffff" d="M37.25,16.24h-10.42c-2.11,0-3.83,1.72-3.83,3.83v2.2c0,2.11,1.72,3.83,3.83,3.83h10.42c2.12,0,3.84-1.72,3.84-3.83v-2.2c0-2.11-1.72-3.83-3.84-3.83ZM40.27,22.27c0,1.66-1.35,3.01-3.02,3.01h-10.42c-1.66,0-3.01-1.35-3.01-3.01v-2.2c0-1.66,1.35-3.01,3.01-3.01h10.42c1.67,0,3.02,1.35,3.02,3.01v2.2Z"/>
  <path fill="#ffffff" d="M29.63,21.25c0,.77-.62,1.4-1.4,1.4s-1.39-.63-1.39-1.4.62-1.4,1.39-1.4,1.4.63,1.4,1.4Z"/>
  <path fill="#ffffff" d="M37.25,21.25c0,.77-.62,1.4-1.4,1.4s-1.39-.63-1.39-1.4.62-1.4,1.39-1.4,1.4.63,1.4,1.4Z"/>
  <path fill="#ffffff" d="M48.45,37.65v6.25c0,1.85-1.03,3.52-2.68,4.36-.2.09-.45.01-.55-.18-.1-.21-.02-.45.18-.56,1.37-.69,2.23-2.08,2.23-3.62v-6.25c0-2.23-1.82-4.05-4.06-4.05h-22.64c-2.24,0-4.06,1.82-4.06,4.05v6.25c0,1.54.85,2.92,2.22,3.62.21.1.29.35.18.55-.1.2-.35.29-.55.18-1.65-.83-2.67-2.5-2.67-4.35v-6.25c0-2.69,2.19-4.87,4.88-4.87h22.64c2.69,0,4.88,2.18,4.88,4.87Z"/>
</svg>