<?xml version="1.0" encoding="UTF-8"?>
<svg id="Layer_4" xmlns="http://www.w3.org/2000/svg" viewBox="0 0 64.78 56.04">
  <defs>
    <style>
      .cls-1 {
        stroke: #000;
      }

      .cls-1, .cls-2 {
        fill: none;
        stroke-miterlimit: 10;
        stroke-width: .75px;
      }

      .cls-3 {
        fill: #19323f;
      }

      .cls-2 {
        stroke: #19323f;
      }
    </style>
  </defs>
  <path d="M53.34,21.87c-.98-1.6-2.19-3.1-3.6-4.51-4.75-4.74-10.57-7.15-17.3-7.15s-12.55,2.41-17.29,7.15c-1.41,1.41-2.62,2.93-3.61,4.52-2.35,3.77-3.54,8.05-3.54,12.78,0,2.84.42,5.54,1.29,8.04,1.16,3.43,3.12,6.52,5.86,9.26,2.29,2.29,4.8,1.18,7.84-1.2l.17-.13.18.11c2.71,1.57,5.78,2.36,9.1,2.36s6.39-.79,9.11-2.36l.17-.11.17.13c1.56,1.21,3.39,2.46,5.1,2.46,1,0,1.9-.42,2.75-1.26,2.74-2.74,4.71-5.85,5.87-9.29.86-2.5,1.28-5.18,1.28-8.01,0-4.73-1.19-9.01-3.55-12.79ZM40.61,50.28c-2.46,1.31-5.2,1.97-8.16,1.97s-5.7-.67-8.16-1.97l-.42-.22.57-.47c2.55-2.09,5.2-4.25,8-4.25s5.45,2.16,8.01,4.25l.57.47-.41.22ZM41.8,49.59l-.81-.66c-2.55-2.08-5.44-4.43-8.55-4.43s-5.99,2.35-8.54,4.43l-.81.66-.19-.12c-1.01-.67-1.99-1.47-2.89-2.38-3.43-3.42-5.16-7.61-5.16-12.43s1.74-9,5.16-12.43,7.61-5.16,12.43-5.16,9.01,1.74,12.44,5.16,5.15,7.61,5.15,12.43-1.73,9-5.15,12.43c-.91.91-1.88,1.7-2.9,2.38l-.18.12ZM49.15,51.36c-.7.7-1.42,1.01-2.19,1.01-1.21,0-2.55-.77-4.12-1.95l-.34-.26.35-.25c.92-.64,1.8-1.39,2.63-2.21,3.59-3.59,5.41-7.97,5.41-13.04s-1.82-9.44-5.41-13.04c-3.59-3.58-7.97-5.4-13.04-5.4s-9.44,1.82-13.03,5.4-5.41,7.98-5.41,13.04,1.82,9.44,5.41,13.04c.82.82,1.7,1.57,2.62,2.21l.36.25-.34.26c-2.55,1.92-4.5,2.75-6.3.94-4.58-4.58-6.9-10.19-6.9-16.69s2.32-12.11,6.9-16.69c4.58-4.58,10.2-6.9,16.69-6.9s12.12,2.32,16.7,6.9c4.57,4.58,6.9,10.19,6.9,16.69s-2.33,12.11-6.9,16.69Z"/>
  <rect class="cls-2" x="36.73" y="27.89" width="7.65" height="7.65" rx="1.92" ry="1.92"/>
  <rect class="cls-2" x="20.4" y="27.89" width="7.65" height="7.65" rx="1.92" ry="1.92"/>
  <g>
    <circle class="cls-3" cx="54.6" cy="6.31" r="3.5"/>
    <line class="cls-2" x1="54.6" y1="10.02" x2="54.6" y2="21.55"/>
  </g>
  <path class="cls-1" d="M52.91,21.91c5.76-.55,10.88,3.67,11.43,9.43s-3.67,10.88-9.43,11.43"/>
  <g>
    <circle class="cls-3" cx="10.2" cy="6.31" r="3.5"/>
    <line class="cls-2" x1="10.2" y1="10.02" x2="10.2" y2="21.55"/>
  </g>
  <path class="cls-1" d="M11.87,21.91c-5.76-.55-10.88,3.67-11.43,9.43-.55,5.76,3.67,10.88,9.43,11.43"/>
</svg>