<?xml version="1.0" encoding="UTF-8"?>
<svg id="Layer_8" xmlns="http://www.w3.org/2000/svg" viewBox="0 0 64.78 64.38">
  <defs>
    <style>
      path {
        fill: #ffffff;
      }

      .cls-2 {
      fill: none;
      }

      .cls-3 {
        fill: none;
      }

    </style>
  </defs>
  <path class="cls-3" d="M1.74,43.05c0,.81.66,1.46,1.46,1.46h45.72c.81,0,1.46-.66,1.46-1.46v-4.36H1.74v4.36ZM26.06,40.02c.79,0,1.44.64,1.44,1.44s-.64,1.44-1.44,1.44-1.44-.64-1.44-1.44.64-1.44,1.44-1.44Z"/>
  <path class="cls-1" d="M25.61,42.45c.79,0,1.44-.64,1.44-1.44s-.64-1.44-1.44-1.44-1.44.64-1.44,1.44.64,1.44,1.44,1.44Z"/>
  <path class="cls-1" d="M48.47,10.37H2.75c-1.3,0-2.36,1.06-2.36,2.36v29.87c0,1.3,1.06,2.36,2.36,2.36h17.12c-.05.99-.24,1.9-.58,2.71-.97,2.33-3.14,3.82-6.11,4.2-.05,0-.09.01-.13.02h-.06c-.76.2-1.29.87-1.29,1.64v.72c0,.92.75,1.67,1.67,1.67h24.5c.92,0,1.67-.75,1.67-1.67v-.72c0-.77-.53-1.44-1.28-1.62-.06-.02-.13-.03-.22-.04-2.97-.38-5.14-1.87-6.11-4.2-.34-.81-.53-1.72-.58-2.71h17.12c1.3,0,2.36-1.06,2.36-2.36V12.73c0-1.3-1.06-2.36-2.36-2.36ZM1.29,12.73c0-.81.66-1.46,1.46-1.46h45.72c.81,0,1.46.66,1.46,1.46v24.61h-9.35v.45c0,.25-.2.45-.45.45H11.08c-.25,0-.45-.2-.45-.45v-.45H1.29V12.73ZM38.63,54.26c0,.43-.35.77-.77.77H13.36c-.43,0-.77-.35-.77-.77v-.72c0-.31.19-.58.47-.7.01,0,.03,0,.04,0h25.02s.03,0,.04,0c.29.12.47.39.47.7v.72ZM31.1,48.02c.74,1.76,2.07,3.1,3.85,3.92h-18.69c1.79-.82,3.12-2.15,3.85-3.92.39-.92.6-1.95.65-3.06h9.68c.05,1.11.26,2.14.65,3.06ZM49.94,42.6c0,.81-.66,1.46-1.46,1.46H2.75c-.81,0-1.46-.66-1.46-1.46v-4.36h48.65v4.36Z"/>
  <path class="cls-5" d="M14.81,28.04h13.64c.41,0,.74-.33.74-.74v-6.35c0-.41-.33-.74-.74-.74h-13.64c-.41,0-.74.33-.74.74v6.35c0,.41.33.74.74.74ZM19.82,21.92c0-.33.19-.62.5-.74.3-.12.65-.06.88.17l2.02,2.02c.15.15.24.35.24.57s-.08.42-.24.57l-2.02,2.02c-.15.15-.36.24-.57.24-.1,0-.21-.02-.31-.06-.3-.12-.5-.42-.5-.74v-4.04Z"/>
  <rect class="cls-5" x="31.71" y="19.75" width="6.8" height="8.74" rx="1.19" ry="1.19"/>
  <rect class="cls-5" x="31.71" y="30.42" width="6.8" height="6.52" rx="1.19" ry="1.19"/>
  <path class="cls-1" d="M13.17,31.32h16.03c.25,0,.45-.2.45-.45s-.2-.45-.45-.45H13.17c-.25,0-.45.2-.45.45s.2.45.45.45Z"/>
  <path class="cls-1" d="M13.17,33.48h16.03c.25,0,.45-.2.45-.45s-.2-.45-.45-.45H13.17c-.25,0-.45.2-.45.45s.2.45.45.45Z"/>
  <path class="cls-1" d="M29.2,34.73H13.17c-.25,0-.45.2-.45.45s.2.45.45.45h16.03c.25,0,.45-.2.45-.45s-.2-.45-.45-.45Z"/>
  <path class="cls-1" d="M38.43,13.16H12.79c-1.19,0-2.16.97-2.16,2.15v22.49c0,.25.2.45.45.45h29.06c.25,0,.45-.2.45-.45V15.31c0-1.19-.97-2.15-2.15-2.15ZM39.69,37.35H11.53v-19.66h28.16v19.66ZM39.69,16.79H11.53v-1.48c0-.69.56-1.26,1.26-1.26h25.64c.69,0,1.26.56,1.26,1.26v1.48Z"/>
  <path class="cls-1" d="M17.63,14.78c-.39,0-.71.32-.71.71s.32.71.71.71.71-.32.71-.71-.32-.71-.71-.71Z"/>
  <path class="cls-1" d="M15.59,14.78c-.39,0-.71.32-.71.71s.32.71.71.71.71-.32.71-.71-.32-.71-.71-.71Z"/>
  <path class="cls-1" d="M13.56,14.78c-.39,0-.71.32-.71.71s.32.71.71.71.71-.32.71-.71-.32-.71-.71-.71Z"/>
  <g>
    <path d="M53.66,11.35c-2.18-2.18-4.84-3.28-7.91-3.28s-5.73,1.1-7.91,3.28c-2.18,2.18-3.28,4.84-3.28,7.91s1.1,5.73,3.28,7.91c2.18,2.18,4.84,3.28,7.91,3.28,1.68,0,2.07-1.42,2.26-3.01.9-.24,1.73-.63,2.5-1.16.43-.3.84-.65,1.23-1.03.41-.41.77-.85,1.08-1.31.5-.75.87-1.56,1.11-2.42,1-.12,1.94-.33,2.5-.88.32-.32.52-.76.52-1.38,0-3.07-1.1-5.73-3.28-7.91ZM51.27,24.78c-.94.94-2,1.58-3.18,1.95,0-.04,0-.08.01-.12.15-1.46.3-2.97,1.16-3.83s2.37-1.01,3.83-1.16c.04,0,.08,0,.12-.01-.36,1.18-1.01,2.24-1.94,3.18ZM53.39,20.92c-.12.01-.24.02-.36.03-1.5.15-3.21.33-4.23,1.35-1.03,1.03-1.2,2.73-1.35,4.23-.02.12-.03.24-.04.36-.53.11-1.08.16-1.66.16-2.15,0-4.01-.77-5.52-2.28-1.51-1.51-2.28-3.37-2.28-5.52s.77-4.01,2.28-5.52c1.52-1.51,3.37-2.28,5.52-2.28s4.01.77,5.52,2.28c1.51,1.52,2.28,3.37,2.28,5.52,0,.57-.06,1.13-.16,1.66ZM54.09,20.83c.09-.5.13-1.03.13-1.57,0-2.33-.83-4.35-2.48-5.99-1.64-1.65-3.66-2.48-5.99-2.48s-4.35.83-5.99,2.48c-1.65,1.64-2.48,3.66-2.48,5.99s.83,4.35,2.48,5.99,3.66,2.48,5.99,2.48c.54,0,1.06-.05,1.57-.13-.19,1.38-.52,2.19-1.57,2.19-2.89,0-5.39-1.04-7.44-3.09-2.05-2.05-3.09-4.55-3.09-7.44s1.04-5.39,3.09-7.44c2.05-2.05,4.55-3.09,7.44-3.09s5.39,1.04,7.44,3.09c2.05,2.05,3.09,4.55,3.09,7.44,0,1.05-.81,1.38-2.19,1.57Z"/>
    <path class="cls-2" d="M53.56,19.26c0,.57-.06,1.13-.16,1.66-.12.01-.24.02-.36.03-1.5.15-3.21.33-4.23,1.35-1.03,1.03-1.2,2.73-1.35,4.23-.02.12-.03.24-.04.36-.53.11-1.08.16-1.66.16-2.15,0-4.01-.77-5.52-2.28-1.51-1.51-2.28-3.37-2.28-5.52s.77-4.01,2.28-5.52c1.52-1.51,3.37-2.28,5.52-2.28s4.01.77,5.52,2.28c1.51,1.52,2.28,3.37,2.28,5.52Z"/>
    <path class="cls-2" d="M53.22,21.6c-.36,1.18-1.01,2.24-1.94,3.18s-2,1.58-3.18,1.95c0-.04,0-.08.01-.12.15-1.46.3-2.97,1.16-3.83s2.37-1.01,3.83-1.16c.04,0,.08,0,.12-.01Z"/>
    <path class="cls-2" d="M56.28,19.26c0,1.05-.81,1.38-2.19,1.57.09-.5.13-1.03.13-1.57,0-2.33-.83-4.35-2.48-5.99-1.64-1.65-3.66-2.48-5.99-2.48s-4.35.83-5.99,2.48c-1.65,1.64-2.48,3.66-2.48,5.99s.83,4.35,2.48,5.99,3.66,2.48,5.99,2.48c.54,0,1.06-.05,1.57-.13-.19,1.38-.52,2.19-1.57,2.19-2.89,0-5.39-1.04-7.44-3.09-2.05-2.05-3.09-4.55-3.09-7.44s1.04-5.39,3.09-7.44c2.05-2.05,4.55-3.09,7.44-3.09s5.39,1.04,7.44,3.09c2.05,2.05,3.09,4.55,3.09,7.44Z"/>
  </g>
  <path class="cls-4" d="M63.87,34.39l-10.97-10.97-2.51,2.51,10.97,10.97c.33.33.79.51,1.26.51s.92-.18,1.26-.51c.7-.7.7-1.81,0-2.51ZM63.42,36.45c-.22.21-.51.32-.8.32s-.59-.11-.8-.32l-10.51-10.52,1.6-1.6.08.07,10.44,10.44c.44.44.44,1.16,0,1.61Z"/>
</svg>