<?xml version="1.0" encoding="UTF-8"?>
<svg id="data" xmlns="http://www.w3.org/2000/svg" viewBox="0 0 64.78 64.38">
  <defs>
    <style>
      .cls-1 {
        fill: #fff;
      }

      .cls-2 {
        fill: #231f20;
      }

      .cls-3 {
        fill: #c6c6c6;
      }

      .cls-4 {
        fill: none;
        stroke: #231f20;
        stroke-miterlimit: 10;
        stroke-width: .75px;
      }
    </style>
  </defs>
  <g>
    <rect class="cls-3" x="9.8" y="22.48" width="9.37" height="9.37"/>
    <rect class="cls-3" x="20.17" y="22.48" width="9.37" height="9.37"/>
    <rect class="cls-3" x="30.53" y="22.48" width="9.37" height="9.37"/>
    <rect class="cls-3" x="9.8" y="32.78" width="9.37" height="9.37"/>
    <rect class="cls-3" x="20.17" y="32.78" width="9.37" height="9.37"/>
    <rect class="cls-3" x="30.53" y="32.78" width="9.37" height="9.37"/>
    <rect class="cls-3" x="9.8" y="43.09" width="9.37" height="9.37"/>
    <rect class="cls-3" x="20.17" y="43.09" width="9.37" height="9.37"/>
    <rect class="cls-3" x="30.53" y="43.09" width="9.37" height="9.37"/>
  </g>
  <circle class="cls-3" cx="13.6" cy="14.77" r="3.79"/>
  <rect class="cls-4" x="7.26" y="2.4" width="35.19" height="61.6" rx="4.82" ry="4.82"/>
  <rect class="cls-4" x="7.26" y="7.95" width="35.19" height="45.52"/>
  <g>
    <path d="M44.64,3.5c-2.33-2.33-5.16-3.5-8.44-3.5s-6.12,1.18-8.44,3.5c-2.33,2.33-3.5,5.16-3.5,8.44s1.18,6.12,3.5,8.44c2.33,2.33,5.16,3.5,8.44,3.5,1.79,0,2.21-1.51,2.41-3.21.96-.26,1.84-.67,2.66-1.23.46-.32.9-.69,1.32-1.1.44-.44.83-.9,1.16-1.39.54-.8.93-1.66,1.18-2.59,1.07-.13,2.07-.35,2.66-.94.35-.34.55-.81.55-1.47,0-3.28-1.18-6.12-3.5-8.44ZM42.09,17.83c-1,1-2.13,1.69-3.39,2.08,0-.04,0-.09.01-.13.16-1.56.32-3.17,1.24-4.08s2.53-1.08,4.08-1.24c.04,0,.09,0,.13-.01-.39,1.26-1.08,2.39-2.07,3.39ZM44.35,13.71c-.13.01-.26.02-.39.04-1.6.16-3.42.35-4.52,1.45-1.1,1.1-1.28,2.91-1.44,4.52-.02.13-.03.26-.04.39-.57.11-1.16.17-1.77.17-2.29,0-4.28-.82-5.89-2.44-1.61-1.61-2.43-3.6-2.43-5.89s.82-4.28,2.43-5.89c1.62-1.61,3.6-2.44,5.89-2.44s4.28.82,5.89,2.44c1.61,1.62,2.44,3.6,2.44,5.89,0,.61-.06,1.2-.18,1.77ZM45.09,13.62c.09-.54.14-1.1.14-1.67,0-2.49-.89-4.64-2.64-6.39-1.75-1.76-3.9-2.64-6.39-2.64s-4.64.89-6.39,2.64c-1.76,1.75-2.64,3.91-2.64,6.39s.89,4.64,2.64,6.39,3.91,2.64,6.39,2.64c.58,0,1.14-.05,1.68-.14-.21,1.47-.55,2.34-1.68,2.34-3.08,0-5.75-1.11-7.94-3.29s-3.29-4.85-3.29-7.94,1.11-5.75,3.29-7.94c2.18-2.18,4.85-3.29,7.94-3.29s5.75,1.11,7.94,3.29c2.19,2.19,3.3,4.86,3.3,7.94,0,1.12-.87,1.47-2.34,1.67Z"/>
    <path class="cls-1" d="M44.16,14.44c-.39,1.26-1.08,2.39-2.07,3.39s-2.13,1.69-3.39,2.08c0-.04,0-.09.01-.13.16-1.56.32-3.17,1.24-4.08s2.53-1.08,4.08-1.24c.04,0,.09,0,.13-.01Z"/>
    <path class="cls-1" d="M47.43,11.94c0,1.12-.87,1.47-2.34,1.67.09-.54.14-1.1.14-1.67,0-2.49-.89-4.64-2.64-6.39-1.75-1.76-3.9-2.64-6.39-2.64s-4.64.89-6.39,2.64c-1.76,1.75-2.64,3.91-2.64,6.39s.89,4.64,2.64,6.39,3.91,2.64,6.39,2.64c.58,0,1.14-.05,1.68-.14-.21,1.47-.55,2.34-1.68,2.34-3.08,0-5.75-1.11-7.94-3.29s-3.29-4.85-3.29-7.94,1.11-5.75,3.29-7.94c2.18-2.18,4.85-3.29,7.94-3.29s5.75,1.11,7.94,3.29c2.19,2.19,3.3,4.86,3.3,7.94Z"/>
    <path class="cls-2" d="M55.35,33.2c-.47,0-.94-.18-1.3-.54l-13.38-13.38,2.94-2.94,13.38,13.38c.72.72.72,1.88,0,2.6l-.34.34c-.36.36-.83.54-1.3.54ZM41.57,19.29l12.93,12.93c.47.47,1.22.47,1.69,0l.34-.34c.47-.47.47-1.22,0-1.69l-12.93-12.93-2.03,2.03Z"/>
    <path class="cls-1" d="M44.52,11.94c0,.61-.06,1.2-.18,1.77-.13.01-.26.02-.39.04-1.6.16-3.42.35-4.52,1.45-1.1,1.1-1.28,2.91-1.44,4.52-.02.13-.03.26-.04.39-.57.11-1.16.17-1.77.17-2.29,0-4.28-.82-5.89-2.44-1.61-1.61-2.43-3.6-2.43-5.89s.82-4.28,2.43-5.89c1.62-1.61,3.6-2.44,5.89-2.44s4.28.82,5.89,2.44c1.61,1.62,2.44,3.6,2.44,5.89Z"/>
  </g>
</svg>