<?xml version="1.0" encoding="UTF-8"?>
<svg id="pay2" xmlns="http://www.w3.org/2000/svg" viewBox="0 0 64.78 64.38">
  <defs>
    <style>
      .cls-1 {
        fill: #ea001b;
      }

      .cls-2 {
        fill: none;
        stroke: #000;
        stroke-miterlimit: 10;
        stroke-width: .75px;
      }

      .cls-3 {
        fill: #ff5f01;
      }

      .cls-4 {
        fill: #fff;
      }

      .cls-5 {
        fill: #f79f1a;
      }

      .cls-6 {
        fill: #c6c6c6;
      }

      .cls-7 {
        fill: #230de6;
      }
    </style>
  </defs>
  <g>
    <rect class="cls-6" x="34.3" y="35.35" width="9.7" height="9.7" rx="4.85" ry="4.85"/>
    <rect class="cls-6" x="47.82" y="35.35" width="9.7" height="9.7" rx="4.85" ry="4.85"/>
    <g>
      <rect class="cls-7" x="20.78" y="35.35" width="9.7" height="9.7" rx="4.85" ry="4.85"/>
      <g>
        <path class="cls-4" d="M29.31,41.45c-.19,0-.36,0-.54,0-.02,0-.05-.03-.06-.06-.02-.08-.04-.16-.05-.24,0-.05-.03-.07-.08-.07-.24,0-.48,0-.72,0-.03,0-.07.03-.08.06-.04.08-.06.17-.1.25-.01.02-.04.06-.06.06-.2,0-.41,0-.63,0,.03-.08.06-.14.09-.2.29-.7.59-1.39.87-2.09.06-.15.17-.23.33-.22.14,0,.29,0,.43,0,.06,0,.09.02.1.08.16.77.32,1.54.48,2.31,0,.04.01.07.02.13ZM28.54,40.57c-.07-.32-.13-.63-.19-.93,0,0-.02,0-.03,0-.11.31-.22.62-.34.93h.56Z"/>
        <path class="cls-4" d="M25.25,40.81c.22.13.44.17.67.16.1,0,.2-.03.29-.07.14-.07.17-.22.05-.33-.06-.06-.14-.1-.22-.15-.12-.07-.25-.14-.36-.22-.38-.26-.3-.76-.06-1,.19-.18.42-.26.67-.3.25-.04.5,0,.74.07.03,0,.06.05.06.07-.02.16-.05.31-.08.46-.14-.03-.27-.07-.4-.08-.13,0-.26,0-.39.04-.17.05-.19.22-.05.33.08.06.18.11.27.16.1.06.2.12.29.19.38.29.3.76.07,1.01-.19.2-.43.29-.7.34-.3.05-.59,0-.88-.09-.06-.02-.09-.05-.07-.12.03-.15.05-.3.08-.46Z"/>
        <path class="cls-4" d="M21.95,39.29c.51.33.89.74.92,1.37,0,0,.02,0,.03,0,.01-.03.03-.07.04-.1.18-.5.37-1,.54-1.51.03-.09.07-.11.16-.11.18,0,.37,0,.57,0-.01.04-.02.07-.03.09-.32.78-.65,1.56-.97,2.34-.02.06-.05.08-.12.08-.17,0-.35,0-.52,0-.05,0-.08-.01-.1-.07-.18-.69-.36-1.37-.54-2.06,0,0,0-.01,0-.03Z"/>
        <path class="cls-4" d="M24.09,41.45c.03-.2.06-.39.09-.57.09-.56.18-1.12.27-1.68.01-.07.02-.14.04-.22,0-.02.03-.04.04-.04.2,0,.4,0,.61,0-.03.16-.05.3-.07.44-.1.59-.19,1.18-.29,1.77-.01.06-.03.13-.03.19,0,.1-.05.11-.13.11-.17,0-.34,0-.53,0Z"/>
        <path class="cls-4" d="M28.54,40.57h-.56c.12-.32.23-.62.34-.93,0,0,.02,0,.03,0,.06.31.13.62.19.93Z"/>
      </g>
    </g>
    <g>
      <rect x="7.26" y="35.35" width="9.7" height="9.7" rx="4.85" ry="4.85"/>
      <g>
        <path class="cls-5" d="M15.12,40.2c0,1.05-.85,1.91-1.91,1.91-.41,0-.79-.13-1.11-.35.48-.35.8-.91.8-1.55s-.32-1.21-.8-1.55c.31-.22.69-.35,1.11-.35,1.05,0,1.91.85,1.91,1.91Z"/>
        <path class="cls-3" d="M12.91,40.2c0,.64-.32,1.21-.8,1.55-.48-.35-.8-.91-.8-1.55s.32-1.21.8-1.55c.48.35.8.91.8,1.55Z"/>
        <path class="cls-1" d="M12.11,41.75c-.31.22-.69.35-1.11.35-1.05,0-1.91-.85-1.91-1.91s.85-1.91,1.91-1.91c.41,0,.79.13,1.11.35-.48.35-.8.91-.8,1.55s.32,1.21.8,1.55Z"/>
      </g>
    </g>
  </g>
  <rect x="7.26" y="18.49" width="50.26" height="10.58" rx="5.29" ry="5.29"/>
  <g>
    <path class="cls-4" d="M28.01,21.3c.28-.05.65-.09,1.13-.09.58,0,1,.13,1.27.37.25.21.4.54.4.94s-.12.73-.35.96c-.31.33-.82.49-1.39.49-.18,0-.34,0-.47-.04v1.8h-.59v-4.43ZM28.6,23.46c.13.03.29.05.49.05.71,0,1.14-.34,1.14-.96s-.42-.88-1.07-.88c-.26,0-.45.02-.55.05v1.74Z"/>
    <path class="cls-4" d="M33.21,25.73l-.05-.41h-.02c-.18.25-.53.48-1,.48-.66,0-1-.46-1-.93,0-.78.7-1.21,1.96-1.2v-.07c0-.27-.07-.75-.74-.75-.3,0-.62.09-.85.24l-.13-.39c.27-.17.66-.29,1.07-.29,1,0,1.24.67,1.24,1.32v1.21c0,.28.01.55.05.77h-.54ZM33.12,24.09c-.65-.01-1.38.1-1.38.73,0,.38.26.56.56.56.42,0,.69-.27.79-.54.02-.06.03-.13.03-.19v-.56Z"/>
    <path class="cls-4" d="M34.81,22.51l.71,1.9c.07.21.16.47.21.66h.01c.06-.19.13-.44.21-.67l.65-1.89h.63l-.89,2.3c-.42,1.11-.71,1.67-1.12,2.02-.29.25-.58.35-.73.38l-.15-.49c.15-.05.34-.14.52-.29.16-.13.36-.35.5-.65.03-.06.05-.11.05-.14s-.01-.08-.04-.15l-1.21-2.97h.65Z"/>
  </g>
  <rect class="cls-2" x=".65" y="13.53" width="63.47" height="36.94" rx="10.21" ry="10.21"/>
</svg>