<svg enable-background="new 0 0 64 64" viewBox="0 0 64 64" width="65px"
     xmlns="http://www.w3.org/2000/svg" version="1.1"
     xmlns:xlink="http://www.w3.org/1999/xlink"
     xmlns:svgjs="http://www.w3.org/1999/xlink">
    <g transform="matrix(1,0,0,1,0,0)">
        <g id="mobile_transaction">
            <g>
                <g>
                    <path d="m50.479 18.8108v.8201c0 .5522.4478 1 1 1s1-.4478 1-1v-.8189c1.6762-.35 2.7842-1.5475 2.7842-3.164.0029-1.1797-.4702-3.2256-3.6353-3.668-1.5698-.2813-1.8252-.9087-1.7349-1.7803.1294-.8345 1.0547-1.2319 1.8647-1.167.3608.0254 1.2012.1763 1.2129 1.0269.0078.5527.499.9834 1.0137.9863.5522-.0078.9937-.4614.9863-1.0137-.0203-1.4782-1.0006-2.5887-2.4916-2.9081v-.7232c0-.5522-.4478-1-1-1s-1 .4478-1 1v.7881c-1.2337.3444-2.3373 1.2565-2.5688 2.7524-.1309 1.2476.1318 3.4277 3.4028 4.0132 1.7173.2407 1.9521.9536 1.9502 1.6909 0 1.2271-1.5259 1.2485-1.8198 1.2817-1.0718 0-1.7295-.5903-1.8062-1.6206-.04-.5508-.5283-.9653-1.0708-.9233-.5508.0405-.9644.52-.9233 1.0708.1291 1.7456 1.2332 2.9968 2.8359 3.3567z"
                          fill="#ffffffff" data-original-color="#000000ff"
                          stroke="none"/>
                    <path d="m14.9609 7.9482h8.5488c.5522 0 1-.4478 1-1s-.4478-1-1-1h-8.5488c-.5522 0-1 .4478-1 1s.4478 1 1 1z"
                          fill="#ffffffff" data-original-color="#000000ff"
                          stroke="none"/>
                    <path d="m22.2778 55.9175h-6.0884c-.5522 0-1 .4478-1 1s.4478 1 1 1h6.0884c.5522 0 1-.4478 1-1s-.4477-1-1-1z"
                          fill="#ffffffff" data-original-color="#000000ff"
                          stroke="none"/>
                    <path d="m50.1611 39.0112c-.5122-.2041-1.1016.0615-1.3071.5742-.2051.5132.0444 1.0947.5571 1.3003.1221.0483.2476.0718.3711.0718.397 0 .7725-.2383.9292-.6289l.0137-.0342c.2051-.5131-.0513-1.0776-.564-1.2832z"
                          fill="#ffffffff" data-original-color="#000000ff"
                          stroke="none"/>
                    <path d="m19.2354 20.1382c-6.6582 0-12.0752 5.4155-12.0752 12.0718 0 6.6582 5.417 12.0752 12.0752 12.0752 6.6563 0 12.0713-5.417 12.0713-12.0752-.0001-6.6563-5.4151-12.0718-12.0713-12.0718zm0 22.147c-5.5557 0-10.0752-4.5195-10.0752-10.0752 0-5.5537 4.5195-10.0718 10.0752-10.0718 5.5532 0 10.0713 4.5181 10.0713 10.0718-.0001 5.5556-4.5181 10.0752-10.0713 10.0752z"
                          fill="#ffffffff" data-original-color="#000000ff"
                          stroke="none"/>
                    <path d="m59.9658 26.4263h-22.4951v-17.6402c0-3.7188-3.0254-6.7441-6.7441-6.7441h-22.9825c-3.7187 0-6.7441 3.0254-6.7441 6.7441v46.8477c0 3.7188 3.0254 6.7441 6.7441 6.7441h22.9824c3.7188 0 6.7441-3.0254 6.7441-6.7441v-2.1489h22.4951c1.6729 0 3.0342-1.3613 3.0342-3.0342v-20.9907c.0001-1.6729-1.3612-3.0337-3.0341-3.0337zm-56.9658-13.8867h32.4707v39.1001h-32.4707zm34.4707 24.4697c.6362-.4795 1.4072-.7397 2.2109-.7397 2.0313 0 3.6841 1.6543 3.6841 3.6875 0 2.0313-1.6528 3.6841-3.6841 3.6841-.8037 0-1.5747-.2603-2.2109-.7397zm0 8.1729c.6937.2944 1.4404.4589 2.2109.4589 3.1343 0 5.6841-2.5498 5.6841-5.6841 0-3.1362-2.5498-5.6875-5.6841-5.6875-.7706 0-1.5173.1645-2.2109.4589v-1.7972h14.7476c.3979 1.9443 1.9331 3.4795 3.8774 3.8774v6.2935c-1.9443.3979-3.4795 1.9331-3.8774 3.8774h-14.7476zm-29.7266-41.1402h22.9824c2.6157 0 4.7441 2.1284 4.7441 4.7441v1.7534h-32.4706v-1.7534c0-2.6157 2.1284-4.7441 4.7441-4.7441zm22.9825 56.3359h-22.9825c-2.6157 0-4.7441-2.1284-4.7441-4.7441v-1.9941h32.4707v1.9941c0 2.6157-2.1284 4.7441-4.7441 4.7441zm30.2734-9.9272c0 .5703-.4639 1.0342-1.0342 1.0342h-22.4951v-2.5054h15.6465c.5522 0 1-.4478 1-1 0-1.6426 1.3359-2.9785 2.9785-2.9785.5522 0 1-.4478 1-1v-8.0913c0-.5522-.4478-1-1-1-1.6426 0-2.9785-1.3359-2.9785-2.9785 0-.5522-.4478-1-1-1h-15.6465v-2.5049h22.4951c.5703 0 1.0342.4638 1.0342 1.0337z"
                          fill="#ffffffff" data-original-color="#000000ff"
                          stroke="none"/>
                    <path d="m51.3931 24.4199c6.2861 0 11.4004-5.1128 11.4004-11.397 0-6.2866-5.1143-11.4009-11.4004-11.4009s-11.4004 5.1143-11.4004 11.4009c0 6.2842 5.1142 11.397 11.4004 11.397zm0-20.7978c5.1836 0 9.4004 4.2173 9.4004 9.4009 0 5.1816-4.2168 9.397-9.4004 9.397s-9.4004-4.2153-9.4004-9.397c0-5.1836 4.2168-9.4009 9.4004-9.4009z"
                          fill="#ffffffff" data-original-color="#000000ff"
                          stroke="none"/>
                    <path d="m23.269 26.1187c-.7271.0439-1.3916.3672-1.8691.9077l-4.5474 5.1118-.7642-.6772c-.5596-.5-1.2876-.7544-2.0347-.709-.7554.043-1.4478.3774-1.9502.9414-1.0327 1.1626-.9277 2.9487.2349 3.9829l3.0225 2.6885c.3892.3452.979.792 1.6953.792.04 0 .0811-.0015.1221-.0044.8447-.0605 1.3794-.6914 1.9458-1.3594.1226-.1445.2549-.3008.4009-.4648l5.9438-6.6841c.9976-1.1226.895-2.8477-.228-3.8452-.5429-.483-1.2392-.7218-1.9717-.6802zm.7046 3.1967-5.9429 6.6826c0 .0005-.0005.001-.0005.001-.1572.1768-.2998.3447-.4321.501-.1948.2295-.4297.5068-.5713.626-.0645-.0371-.1738-.1108-.3374-.2559l-3.0225-2.6885c-.3325-.2959-.3643-.8267-.0688-1.1587.146-.1646.3481-.2617.5693-.2744.0161-.001.0322-.0015.0483-.0015.2007 0 .3911.0723.543.208l1.5146 1.3423c.4131.3652 1.0444.3281 1.4102-.084l5.2129-5.8604c.1255-.1421.3003-.2266.4932-.2383.1948-.0103.3794.0518.5229.1792.1431.1274.2285.3047.2402.499s-.0521.3801-.1791.5226z"
                          fill="#ffffffff" data-original-color="#000000ff"
                          stroke="none"/>
                </g>
            </g>
        </g>
    </g>
</svg>