<?xml version="1.0" encoding="UTF-8"?>
<svg id="pay" xmlns="http://www.w3.org/2000/svg" viewBox="0 0 64.78 64.38">
  <defs>
    <style>
      path {
        fill: #ffffff;
      }
      .cls-1 {
        fill: #eeeee;
      }

      .cls-5 {
        fill: #c6c6c6;
      }

      .cls-6 {
        fill: #bcbcbc;
      }
    </style>
  </defs>
  <path d="M52.61,64H12.17c-4.66,0-8.45-3.79-8.45-8.45V8.45C3.72,3.79,7.51,0,12.17,0h40.44c4.66,0,8.45,3.79,8.45,8.45v47.1c0,4.66-3.79,8.45-8.45,8.45ZM12.17.81c-4.21,0-7.64,3.43-7.64,7.64v47.1c0,4.21,3.43,7.64,7.64,7.64h40.44c4.21,0,7.64-3.43,7.64-7.64V8.45c0-4.21-3.43-7.64-7.64-7.64H12.17Z"/>
  <rect class="cls-5" x="9.92" y="39.47" width="8.13" height="8.13" rx="4.06" ry="4.06"/>
  <rect class="cls-5" x="9.92" y="50.45" width="8.13" height="8.13" rx="4.06" ry="4.06"/>
  <rect class="cls-5" x="9.92" y="28.5" width="8.13" height="8.13" rx="4.06" ry="4.06"/>
  <g>
    <path class="cls-1" d="M17.06,33.61c-.16,0-.31,0-.45,0-.02,0-.04-.03-.05-.05-.02-.07-.03-.13-.04-.2,0-.05-.02-.06-.07-.06-.2,0-.4,0-.6,0-.02,0-.06.03-.07.05-.03.07-.05.14-.08.21,0,.02-.03.05-.05.05-.17,0-.34,0-.53,0,.03-.06.05-.12.07-.17.24-.58.49-1.16.73-1.75.05-.13.14-.19.28-.19.12,0,.24,0,.36,0,.05,0,.07.02.08.07.13.64.27,1.29.4,1.93,0,.03.01.06.02.11ZM16.42,32.88c-.05-.27-.11-.52-.16-.78,0,0-.01,0-.02,0-.09.26-.19.52-.28.78h.47Z"/>
    <path class="cls-1" d="M13.66,33.08c.18.1.37.15.57.14.08,0,.17-.02.25-.06.12-.05.14-.19.04-.28-.05-.05-.12-.09-.18-.12-.1-.06-.21-.12-.3-.18-.32-.22-.25-.64-.05-.84.16-.15.35-.22.56-.25.21-.04.42,0,.62.06.02,0,.05.04.05.05-.02.13-.04.26-.06.39-.12-.03-.22-.06-.33-.07-.11,0-.22,0-.32.03-.15.04-.16.18-.04.27.07.05.15.09.23.14.08.05.17.1.25.16.32.24.25.64.06.84-.16.17-.36.25-.59.28-.25.04-.5,0-.74-.07-.05-.02-.07-.04-.06-.1.03-.12.04-.25.07-.39Z"/>
    <path class="cls-1" d="M10.9,31.8c.42.28.74.62.77,1.15,0,0,.01,0,.02,0,.01-.03.02-.05.03-.08.15-.42.31-.84.45-1.26.03-.07.06-.1.14-.09.15,0,.31,0,.47,0-.01.03-.02.06-.03.08-.27.65-.54,1.31-.81,1.96-.02.05-.04.07-.1.07-.14,0-.29,0-.43,0-.05,0-.07-.01-.08-.06-.15-.58-.3-1.15-.45-1.72,0,0,0,0,0-.03Z"/>
    <path class="cls-1" d="M12.69,33.61c.03-.17.05-.32.08-.48.08-.47.15-.94.23-1.4,0-.06.02-.12.03-.18,0-.01.02-.04.03-.04.17,0,.33,0,.51,0-.02.13-.04.25-.06.37-.08.49-.16.99-.24,1.48,0,.05-.03.11-.03.16,0,.08-.04.09-.11.09-.14,0-.29,0-.44,0Z"/>
    <path class="cls-1" d="M16.42,32.88h-.47c.1-.27.19-.52.28-.78,0,0,.01,0,.02,0,.05.26.11.52.16.78Z"/>
  </g>
  <rect class="cls-5" x="9.97" y="17.52" width="8.13" height="8.13" rx="4.06" ry="4.06"/>
  <path class="cls-2" d="M11.5,21.59c0-.88.72-1.6,1.6-1.6.35,0,.67.11.93.3-.41.29-.67.77-.67,1.3s.26,1.01.67,1.3c-.26.19-.58.3-.93.3-.88,0-1.6-.72-1.6-1.6Z"/>
  <path class="cls-3" d="M14.7,21.59c0,.54-.26,1.01-.67,1.3-.41-.29-.67-.76-.67-1.3s.27-1.01.67-1.3c.41.29.67.77.67,1.3Z"/>
  <path class="cls-4" d="M14.03,20.28c.26-.19.58-.3.93-.3.88,0,1.6.72,1.6,1.6s-.72,1.6-1.6,1.6c-.35,0-.67-.11-.93-.3.41-.29.67-.76.67-1.3s-.27-1.01-.67-1.3Z"/>
  <rect x="8.22" y="3.67" width="48.34" height="8.86" rx="4.43" ry="4.43"/>
  <g>
    <path class="cls-1" d="M28.72,6.02c.24-.04.55-.07.94-.07.49,0,.84.11,1.07.31.21.18.33.45.33.79s-.1.61-.29.8c-.26.27-.68.41-1.16.41-.15,0-.28,0-.4-.03v1.51h-.49v-3.72ZM29.21,7.84c.11.03.24.04.41.04.59,0,.95-.28.95-.8s-.36-.74-.9-.74c-.21,0-.38.02-.46.04v1.46Z"/>
    <path class="cls-1" d="M33.07,9.74l-.04-.34h-.02c-.15.21-.45.4-.84.4-.55,0-.84-.38-.84-.78,0-.65.59-1.01,1.64-1v-.06c0-.22-.06-.62-.62-.62-.25,0-.52.08-.71.2l-.11-.32c.23-.15.55-.24.9-.24.84,0,1.04.56,1.04,1.1v1.01c0,.23.01.46.05.65h-.45ZM33,8.36c-.54-.01-1.16.08-1.16.61,0,.32.21.47.47.47.36,0,.58-.22.66-.45.02-.05.03-.11.03-.16v-.47Z"/>
    <path class="cls-1" d="M34.42,7.04l.6,1.6c.06.18.13.39.18.55h.01c.05-.16.11-.37.17-.56l.54-1.58h.53l-.75,1.92c-.36.93-.6,1.4-.94,1.69-.24.21-.49.3-.61.32l-.12-.41c.12-.04.29-.12.43-.24.14-.11.31-.3.42-.55.02-.05.04-.09.04-.12s-.01-.07-.03-.13l-1.01-2.49h.54Z"/>
  </g>
  <polygon class="cls-6" points="54.38 23.48 53.81 22.89 55.12 21.62 53.84 20.6 54.35 19.97 56.35 21.56 54.38 23.48"/>
  <polygon class="cls-6" points="54.38 34.62 53.81 34.03 55.12 32.76 53.84 31.74 54.35 31.11 56.35 32.7 54.38 34.62"/>
  <polygon class="cls-6" points="54.38 45.76 53.81 45.18 55.12 43.9 53.84 42.89 54.35 42.25 56.35 43.84 54.38 45.76"/>
  <polygon class="cls-6" points="54.38 56.9 53.81 56.32 55.12 55.04 53.84 54.03 54.35 53.39 56.35 54.98 54.38 56.9"/>
</svg>