<svg xmlns="http://www.w3.org/2000/svg" xmlns:xlink="http://www.w3.org/1999/xlink"
     version="1.1" id="Capa_1" x="0px" y="0px" viewBox="0 0 512 512"
     style="enable-background:new 0 0 512 512;" xml:space="preserve" width="65px"
     xmlns:svgjs="http://www.w3.org/1999/xlink"><g transform="matrix(1,0,0,1,0,0)">
                                       <g>
                                           <g>
                                               <g>
                                                   <path style="stroke-linecap: round; stroke-linejoin: round; stroke-miterlimit: 10;"
                                                         d="&#10;&#9;&#9;&#9;&#9;M466.808,392.556V113.16H7.5v311.779c0,5.523,4.477,10,10,10H108"
                                                         fill="none" stroke="#ffffffff"
                                                         data-original-stroke-color="#000000ff" stroke-width="15"
                                                         data-original-stroke-width="15"/>
                                                   <path style="stroke-linecap: round; stroke-linejoin: round; stroke-miterlimit: 10;"
                                                         d="&#10;&#9;&#9;&#9;&#9;M143,434.938h313.808c0.203,0,0.401-0.018,0.601-0.03"
                                                         fill="none" stroke="#ffffffff"
                                                         data-original-stroke-color="#000000ff" stroke-width="15"
                                                         data-original-stroke-width="15"/>
                                                   <path style="stroke-linecap: round; stroke-linejoin: round; stroke-miterlimit: 10;"
                                                         d="&#10;&#9;&#9;&#9;&#9;M70,55.876H17.5c-5.523,0-10,4.477-10,10v47.283h459.308V65.876c0-5.523-4.477-10-10-10H105"
                                                         fill="none" stroke="#ffffffff"
                                                         data-original-stroke-color="#000000ff" stroke-width="15"
                                                         data-original-stroke-width="15"/>
                                               </g>
                                               <g>

                                                   <line style="stroke-linecap: round; stroke-linejoin: round; stroke-miterlimit: 10;"
                                                         x1="397.547" y1="84.518" x2="436.083" y2="84.518" fill="none"
                                                         stroke="#ffffffff" data-original-stroke-color="#000000ff"
                                                         stroke-width="15" data-original-stroke-width="15"/>

                                                   <line style="stroke-linecap: round; stroke-linejoin: round; stroke-miterlimit: 10;"
                                                         x1="369.426" y1="84.518" x2="372.551" y2="84.518" fill="none"
                                                         stroke="#ffffffff" data-original-stroke-color="#000000ff"
                                                         stroke-width="15" data-original-stroke-width="15"/>

                                                   <line style="stroke-linecap: round; stroke-linejoin: round; stroke-miterlimit: 10;"
                                                         x1="343.388" y1="84.518" x2="346.513" y2="84.518" fill="none"
                                                         stroke="#ffffffff" data-original-stroke-color="#000000ff"
                                                         stroke-width="15" data-original-stroke-width="15"/>
                                               </g>
                                           </g>
                                           <path style="stroke-linecap: round; stroke-linejoin: round; stroke-miterlimit: 10;"
                                                 d="&#10;&#9;&#9;M71.489,191.483H51.617c-2.744,0-4.968-2.224-4.968-4.968v-19.872c0-2.744,2.224-4.968,4.968-4.968h19.872&#10;&#9;&#9;c2.744,0,4.968,2.224,4.968,4.968v19.872C76.458,189.259,74.233,191.483,71.489,191.483z"
                                                 fill="none" stroke="#ffffffff" data-original-stroke-color="#000000ff"
                                                 stroke-width="15" data-original-stroke-width="15"/>
                                           <path style="stroke-linecap: round; stroke-linejoin: round; stroke-miterlimit: 10;"
                                                 d="&#10;&#9;&#9;M210.792,191.483H190.92c-2.744,0-4.968-2.224-4.968-4.968v-19.872c0-2.744,2.224-4.968,4.968-4.968h19.872&#10;&#9;&#9;c2.744,0,4.968,2.224,4.968,4.968v19.872C215.76,189.259,213.536,191.483,210.792,191.483z"
                                                 fill="none" stroke="#ffffffff" data-original-stroke-color="#000000ff"
                                                 stroke-width="15" data-original-stroke-width="15"/>
                                           <path style="stroke-linecap: round; stroke-linejoin: round; stroke-miterlimit: 10;"
                                                 d="&#10;&#9;&#9;M71.489,388.219H51.617c-2.744,0-4.968-2.224-4.968-4.968v-19.872c0-2.744,2.224-4.968,4.968-4.968h19.872&#10;&#9;&#9;c2.744,0,4.968,2.224,4.968,4.968v19.872C76.458,385.994,74.233,388.219,71.489,388.219z"
                                                 fill="none" stroke="#ffffffff" data-original-stroke-color="#000000ff"
                                                 stroke-width="15" data-original-stroke-width="15"/>
                                           <path style="stroke-linecap: round; stroke-linejoin: round; stroke-miterlimit: 10;"
                                                 d="&#10;&#9;&#9;M210.792,388.219H190.92c-2.744,0-4.968-2.224-4.968-4.968v-19.872c0-2.744,2.224-4.968,4.968-4.968h19.872&#10;&#9;&#9;c2.744,0,4.968,2.224,4.968,4.968v19.872C215.76,385.994,213.536,388.219,210.792,388.219z"
                                                 fill="none" stroke="#ffffffff" data-original-stroke-color="#000000ff"
                                                 stroke-width="15" data-original-stroke-width="15"/>
                                           <path style="stroke-linecap: round; stroke-linejoin: round; stroke-miterlimit: 10;"
                                                 d="&#10;&#9;&#9;M350.095,388.219h-19.872c-2.744,0-4.968-2.224-4.968-4.968v-19.872c0-2.744,2.224-4.968,4.968-4.968h19.872&#10;&#9;&#9;c2.744,0,4.968,2.224,4.968,4.968v19.872C355.063,385.994,352.839,388.219,350.095,388.219z"
                                                 fill="none" stroke="#ffffffff" data-original-stroke-color="#000000ff"
                                                 stroke-width="15" data-original-stroke-width="15"/>
                                           <path style="stroke-linecap: round; stroke-linejoin: round; stroke-miterlimit: 10;"
                                                 d="&#10;&#9;&#9;M350.095,191.483h-19.872c-2.744,0-4.968-2.224-4.968-4.968v-19.872c0-2.744,2.224-4.968,4.968-4.968h19.872&#10;&#9;&#9;c2.744,0,4.968,2.224,4.968,4.968v19.872C355.063,189.259,352.839,191.483,350.095,191.483z"
                                                 fill="none" stroke="#ffffffff" data-original-stroke-color="#000000ff"
                                                 stroke-width="15" data-original-stroke-width="15"/>
                                           <path style="stroke-linecap: round; stroke-linejoin: round; stroke-miterlimit: 10;"
                                                 d="&#10;&#9;&#9;M419.747,270.248h-19.872c-2.744,0-4.968-2.224-4.968-4.968v-19.872c0-2.744,2.224-4.968,4.968-4.968h19.872&#10;&#9;&#9;c2.744,0,4.968,2.224,4.968,4.968v19.872C424.715,268.023,422.491,270.248,419.747,270.248z"
                                                 fill="none" stroke="#ffffffff" data-original-stroke-color="#000000ff"
                                                 stroke-width="15" data-original-stroke-width="15"/>
                                           <path style="stroke-linecap: round; stroke-linejoin: round; stroke-miterlimit: 10;"
                                                 d="&#10;&#9;&#9;M146.378,196.72h-30.346c-2.744,0-4.968-2.224-4.968-4.968v-30.346c0-2.744,2.224-4.968,4.968-4.968h30.346&#10;&#9;&#9;c2.744,0,4.968,2.224,4.968,4.968v30.346C151.346,194.496,149.122,196.72,146.378,196.72z"
                                                 fill="none" stroke="#ffffffff" data-original-stroke-color="#000000ff"
                                                 stroke-width="15" data-original-stroke-width="15"/>
                                           <path style="stroke-linecap: round; stroke-linejoin: round; stroke-miterlimit: 10;"
                                                 d="&#10;&#9;&#9;M285.681,196.72h-30.346c-2.744,0-4.968-2.224-4.968-4.968v-30.346c0-2.744,2.224-4.968,4.968-4.968h30.346&#10;&#9;&#9;c2.744,0,4.968,2.224,4.968,4.968v30.346C290.649,194.496,288.425,196.72,285.681,196.72z"
                                                 fill="none" stroke="#ffffffff" data-original-stroke-color="#000000ff"
                                                 stroke-width="15" data-original-stroke-width="15"/>
                                           <path style="stroke-linecap: round; stroke-linejoin: round; stroke-miterlimit: 10;"
                                                 d="&#10;&#9;&#9;M146.378,393.456h-30.346c-2.744,0-4.968-2.224-4.968-4.968v-30.346c0-2.744,2.224-4.968,4.968-4.968h30.346&#10;&#9;&#9;c2.744,0,4.968,2.224,4.968,4.968v30.346C151.346,391.231,149.122,393.456,146.378,393.456z"
                                                 fill="none" stroke="#ffffffff" data-original-stroke-color="#000000ff"
                                                 stroke-width="15" data-original-stroke-width="15"/>
                                           <path style="stroke-linecap: round; stroke-linejoin: round; stroke-miterlimit: 10;"
                                                 d="&#10;&#9;&#9;M418.565,344.313h6.419c2.744,0,4.968-2.224,4.968-4.968v-30.346c0-2.744-2.224-4.968-4.968-4.968h-30.346&#10;&#9;&#9;c-2.744,0-4.968,2.224-4.968,4.968v6.419L418.565,344.313z"
                                                 fill="none" stroke="#ffffffff" data-original-stroke-color="#000000ff"
                                                 stroke-width="15" data-original-stroke-width="15"/>
                                           <g>
                                               <g>
                                                   <path style="stroke-linecap: round; stroke-linejoin: round; stroke-miterlimit: 10;"
                                                         d="&#10;&#9;&#9;&#9;&#9;M279.002,273.453l-9.826,9.826c-28.819,28.819-38.792,69.624-29.929,106.745c1.12,4.693,7.921,4.493,8.733-0.263&#10;&#9;&#9;&#9;&#9;c4.68-27.435,17.551-53.712,38.615-74.776l16.97-16.97L279.002,273.453z"
                                                         fill="none" stroke="#ffffffff"
                                                         data-original-stroke-color="#000000ff" stroke-width="15"
                                                         data-original-stroke-width="15"/>
                                               </g>
                                               <g>
                                                   <path style="stroke-linecap: round; stroke-linejoin: round; stroke-miterlimit: 10;"
                                                         d="&#10;&#9;&#9;&#9;&#9;M438.401,190.87c-37.121-8.862-77.926,1.111-106.745,29.929l-9.826,9.826l24.562,24.562l16.97-16.97&#10;&#9;&#9;&#9;&#9;c21.064-21.064,47.341-33.935,74.776-38.615C442.894,198.791,443.094,191.99,438.401,190.87z"
                                                         fill="none" stroke="#ffffffff"
                                                         data-original-stroke-color="#000000ff" stroke-width="15"
                                                         data-original-stroke-width="15"/>
                                                   <path style="stroke-linecap: round; stroke-linejoin: round; stroke-miterlimit: 10;"
                                                         d="&#10;&#9;&#9;&#9;&#9;M305.411,231.159l-5.702-5.702c-7.145-7.146-18.73-7.146-25.876,0l0,0c-7.145,7.145-7.145,18.73,0,25.875l5.702,5.702&#10;&#9;&#9;&#9;&#9;L305.411,231.159z"
                                                         fill="none" stroke="#ffffffff"
                                                         data-original-stroke-color="#000000ff" stroke-width="15"
                                                         data-original-stroke-width="15"/>
                                                   <path style="stroke-linecap: round; stroke-linejoin: round; stroke-miterlimit: 10;"
                                                         d="&#10;&#9;&#9;&#9;&#9;M403.249,380.748l70.016,70.016c7.145,7.145,18.73,7.145,25.875,0l0,0c7.145-7.145,7.145-18.73,0-25.876L345.595,271.343&#10;&#9;&#9;&#9;&#9;l-25.876,25.876L378.5,356"
                                                         fill="none" stroke="#ffffffff"
                                                         data-original-stroke-color="#000000ff" stroke-width="15"
                                                         data-original-stroke-width="15"/>
                                               </g>
                                               <path style="stroke-linecap: round; stroke-linejoin: round; stroke-miterlimit: 10;"
                                                     d="&#10;&#9;&#9;&#9;M348.784,268.155l-32.253,32.253c-2.92,2.92-7.655,2.92-10.575,0l-29.609-29.609c-2.92-2.92-2.92-7.655,0-10.575l32.253-32.253&#10;&#9;&#9;&#9;c2.92-2.92,7.655-2.92,10.575,0l29.609,29.609C351.704,260.5,351.704,265.234,348.784,268.155z"
                                                     fill="none" stroke="#ffffffff"
                                                     data-original-stroke-color="#000000ff"
                                                     stroke-width="15" data-original-stroke-width="15"/>
                                           </g>
                                           <g>

                                               <line style="stroke-linecap: round; stroke-linejoin: round; stroke-miterlimit: 10;"
                                                     x1="86.873" y1="239.446" x2="102.211" y2="239.446" fill="none"
                                                     stroke="#ffffffff" data-original-stroke-color="#000000ff"
                                                     stroke-width="15" data-original-stroke-width="15"/>

                                               <line style="stroke-linecap: round; stroke-linejoin: round; stroke-miterlimit: 10;"
                                                     x1="46.649" y1="239.446" x2="63.865" y2="239.446" fill="none"
                                                     stroke="#ffffffff" data-original-stroke-color="#000000ff"
                                                     stroke-width="15" data-original-stroke-width="15"/>

                                               <line style="stroke-linecap: round; stroke-linejoin: round; stroke-miterlimit: 10;"
                                                     x1="125.219" y1="239.446" x2="233.547" y2="239.446" fill="none"
                                                     stroke="#ffffffff" data-original-stroke-color="#000000ff"
                                                     stroke-width="15" data-original-stroke-width="15"/>

                                               <line style="stroke-linecap: round; stroke-linejoin: round; stroke-miterlimit: 10;"
                                                     x1="46.649" y1="276.706" x2="233.547" y2="276.706" fill="none"
                                                     stroke="#ffffffff" data-original-stroke-color="#000000ff"
                                                     stroke-width="15" data-original-stroke-width="15"/>

                                               <line style="stroke-linecap: round; stroke-linejoin: round; stroke-miterlimit: 10;"
                                                     x1="46.649" y1="313.967" x2="201.911" y2="313.967" fill="none"
                                                     stroke="#ffffffff" data-original-stroke-color="#000000ff"
                                                     stroke-width="15" data-original-stroke-width="15"/>
                                           </g>
                                           <path style="stroke-linecap: round; stroke-linejoin: round; stroke-miterlimit: 10;"
                                                 d="&#10;&#9;&#9;M429.952,189.201v-27.795c0-2.744-2.224-4.968-4.968-4.968h-30.346c-2.744,0-4.968,2.224-4.968,4.968v28.499"
                                                 fill="none" stroke="#ffffffff" data-original-stroke-color="#000000ff"
                                                 stroke-width="15" data-original-stroke-width="15"/>
                                           <path style="stroke-linecap: round; stroke-linejoin: round; stroke-miterlimit: 10;"
                                                 d="&#10;&#9;&#9;M250.367,378.61v9.878c0,2.744,2.224,4.968,4.968,4.968h30.346c2.744,0,4.968-2.224,4.968-4.968v-30.346&#10;&#9;&#9;c0-2.744-2.224-4.968-4.968-4.968h-26.086"
                                                 fill="none" stroke="#ffffffff" data-original-stroke-color="#000000ff"
                                                 stroke-width="15" data-original-stroke-width="15"/>
                                       </g>
                                   </g></svg>