<?xml version="1.0" encoding="UTF-8"?>
<svg id="smm" xmlns="http://www.w3.org/2000/svg" viewBox="0 12 64.75 64.38">
  <defs>
    <style>
      .cls-1 {
      fill="#ffffff";
      }
    </style>
  </defs>
  <g>
    <g>
      <rect  fill="#ffffff"  class="cls-1" x="57.71" y="24.36" width="3.34" height="2.08" rx=".58" ry=".58"/>
      <path  fill="#ffffff"  class="cls-1" d="M59.5,26.35s.27.19.24.44c-.02.24-.12.46-.12.46,0,0,.51-.12.7-.53.19-.41.05-.63.05-.63l-.87.27Z"/>
    </g>
    <g>
      <path  fill="#ffffff"  d="M62.8,22.58c-.94-.94-2.09-1.41-3.43-1.41s-2.48.47-3.42,1.41c-.94.94-1.41,2.09-1.41,3.43s.47,2.48,1.41,3.42c.52.52,1.08.2,1.62-.21.54.31,1.14.46,1.8.46s1.27-.15,1.8-.46c.35.27.69.49,1.03.49.2,0,.41-.08.6-.28.94-.94,1.41-2.09,1.41-3.42s-.47-2.49-1.41-3.43ZM59.37,29.34c-.55,0-1.05-.11-1.51-.36,0,0,.01,0,.01-.01.49-.39.99-.81,1.5-.81s1.02.42,1.5.81t.02.01c-.46.24-.97.36-1.52.36ZM61.09,28.71c-.5-.41-1.08-.88-1.71-.88s-1.2.47-1.71.88c-.03.03-.07.06-.1.09-.18-.13-.37-.28-.53-.45-.65-.64-.98-1.44-.98-2.35s.33-1.71.98-2.36c.64-.65,1.44-.98,2.35-.98s1.71.33,2.36.98c.65.64.98,1.44.98,2.36s-.33,1.7-.98,2.35c-.16.17-.35.32-.53.45-.04-.03-.07-.06-.11-.09ZM62.56,29.19c-.3.3-.62.16-1.08-.17.17-.12.34-.27.49-.42.71-.71,1.08-1.59,1.08-2.59s-.37-1.88-1.08-2.59c-.71-.71-1.58-1.08-2.59-1.08s-1.88.37-2.59,1.08-1.07,1.58-1.07,2.59.36,1.88,1.07,2.59c.16.15.33.3.5.42-.46.34-.79.47-1.09.17-.87-.88-1.32-1.95-1.32-3.18s.45-2.32,1.32-3.18c.88-.88,1.95-1.32,3.18-1.32s2.32.44,3.18,1.32c.88.87,1.32,1.94,1.32,3.18s-.44,2.31-1.32,3.18Z"/>
      <path  fill="#ffffff"  d="M62.92,22.48c-.97-.97-2.16-1.46-3.55-1.46s-2.57.49-3.54,1.46c-.97.97-1.46,2.16-1.46,3.55s.49,2.57,1.46,3.54c.54.54,1.12.21,1.68-.22.56.32,1.18.48,1.86.48s1.31-.16,1.86-.48c.36.27.72.51,1.07.51.21,0,.42-.08.62-.29.97-.97,1.46-2.16,1.46-3.54s-.49-2.58-1.46-3.55ZM59.37,29.47c-.57,0-1.09-.12-1.56-.37,0,0,.01,0,.01-.01.51-.4,1.02-.83,1.55-.83s1.06.43,1.55.83t.02.01c-.47.25-1,.37-1.57.37ZM61.14,28.83c-.52-.42-1.12-.91-1.77-.91s-1.25.49-1.77.91c-.03.03-.07.06-.11.1-.19-.14-.38-.29-.55-.46-.68-.67-1.01-1.49-1.01-2.43s.34-1.77,1.01-2.44c.67-.68,1.49-1.01,2.43-1.01s1.77.34,2.44,1.01c.68.67,1.01,1.49,1.01,2.44s-.34,1.76-1.01,2.43c-.17.18-.36.33-.55.46-.04-.03-.07-.06-.12-.1ZM62.66,29.32c-.31.31-.64.17-1.12-.18.18-.13.35-.27.51-.43.74-.74,1.12-1.65,1.12-2.68s-.38-1.94-1.12-2.68c-.74-.74-1.64-1.12-2.68-1.12s-1.94.38-2.68,1.12-1.11,1.64-1.11,2.68.37,1.94,1.11,2.68c.17.16.34.31.52.43-.48.35-.81.49-1.13.18-.9-.91-1.36-2.02-1.36-3.29s.46-2.4,1.36-3.29c.91-.91,2.02-1.36,3.29-1.36s2.4.45,3.29,1.36c.91.9,1.36,2.01,1.36,3.29s-.45,2.39-1.36,3.29Z"/>
    </g>
  </g>
  <g>
    <path  fill="#ffffff"  class="cls-1" d="M47.11,22.37c-.42-.23-.97.06-1.23.45-.26-.39-.83-.67-1.25-.45-.44.24-.55.7-.31,1.14.24.44,1.56,1.52,1.56,1.51,0,.01,1.33-1.07,1.56-1.51.24-.44.1-.91-.34-1.14Z"/>
    <g>
      <path  fill="#ffffff"  d="M49.31,20.31c-.94-.94-2.09-1.41-3.43-1.41s-2.48.47-3.42,1.41c-.94.94-1.41,2.09-1.41,3.43s.47,2.48,1.41,3.42c.52.52,1.08.2,1.62-.21.54.31,1.14.46,1.8.46s1.27-.15,1.8-.46c.35.27.69.49,1.03.49.2,0,.41-.08.6-.28.94-.94,1.41-2.09,1.41-3.42s-.47-2.49-1.41-3.43ZM45.88,27.06c-.55,0-1.05-.11-1.51-.36,0,0,.01,0,.01-.01.49-.39.99-.81,1.5-.81s1.02.42,1.5.81t.02.01c-.46.24-.97.36-1.52.36ZM47.59,26.44c-.5-.41-1.08-.88-1.71-.88s-1.2.47-1.71.88c-.03.03-.07.06-.1.09-.18-.13-.37-.28-.53-.45-.65-.64-.98-1.44-.98-2.35s.33-1.71.98-2.36c.64-.65,1.44-.98,2.35-.98s1.71.33,2.36.98c.65.64.98,1.44.98,2.36s-.33,1.7-.98,2.35c-.16.17-.35.32-.53.45-.04-.03-.07-.06-.11-.09ZM49.06,26.92c-.3.3-.62.16-1.08-.17.17-.12.34-.27.49-.42.71-.71,1.08-1.59,1.08-2.59s-.37-1.88-1.08-2.59c-.71-.71-1.58-1.08-2.59-1.08s-1.88.37-2.59,1.08-1.07,1.58-1.07,2.59.36,1.88,1.07,2.59c.16.15.33.3.5.42-.46.34-.79.47-1.09.17-.87-.88-1.32-1.95-1.32-3.18s.45-2.32,1.32-3.18c.88-.88,1.95-1.32,3.18-1.32s2.32.44,3.18,1.32c.88.87,1.32,1.94,1.32,3.18s-.44,2.31-1.32,3.18Z"/>
      <path  fill="#ffffff"  d="M49.43,20.21c-.97-.97-2.16-1.46-3.55-1.46s-2.57.49-3.54,1.46c-.97.97-1.46,2.16-1.46,3.55s.49,2.57,1.46,3.54c.54.54,1.12.21,1.68-.22.56.32,1.18.48,1.86.48s1.31-.16,1.86-.48c.36.27.72.51,1.07.51.21,0,.42-.08.62-.29.97-.97,1.46-2.16,1.46-3.54s-.49-2.58-1.46-3.55ZM45.88,27.2c-.57,0-1.09-.12-1.56-.37,0,0,.01,0,.01-.01.51-.4,1.02-.83,1.55-.83s1.06.43,1.55.83t.02.01c-.47.25-1,.37-1.57.37ZM47.65,26.56c-.52-.42-1.12-.91-1.77-.91s-1.25.49-1.77.91c-.03.03-.07.06-.11.1-.19-.14-.38-.29-.55-.46-.68-.67-1.01-1.49-1.01-2.43s.34-1.77,1.01-2.44c.67-.68,1.49-1.01,2.43-1.01s1.77.34,2.44,1.01c.68.67,1.01,1.49,1.01,2.44s-.34,1.76-1.01,2.43c-.17.18-.36.33-.55.46-.04-.03-.07-.06-.12-.1ZM49.17,27.05c-.31.31-.64.17-1.12-.18.18-.13.35-.27.51-.43.74-.74,1.12-1.65,1.12-2.68s-.38-1.94-1.12-2.68c-.74-.74-1.64-1.12-2.68-1.12s-1.94.38-2.68,1.12-1.11,1.64-1.11,2.68.37,1.94,1.11,2.68c.17.16.34.31.52.43-.48.35-.81.49-1.13.18-.9-.91-1.36-2.02-1.36-3.29s.46-2.4,1.36-3.29c.91-.91,2.02-1.36,3.29-1.36s2.4.45,3.29,1.36c.91.9,1.36,2.01,1.36,3.29s-.45,2.39-1.36,3.29Z"/>
    </g>
  </g>
  <g>
    <g>
      <path  fill="#ffffff"  d="M53.7,33.06c-.94-.94-2.09-1.41-3.43-1.41s-2.48.47-3.42,1.41c-.94.94-1.41,2.09-1.41,3.43s.47,2.48,1.41,3.42c.52.52,1.08.2,1.62-.21.54.31,1.14.46,1.8.46s1.27-.15,1.8-.46c.35.27.69.49,1.03.49.2,0,.41-.08.6-.28.94-.94,1.41-2.09,1.41-3.42s-.47-2.49-1.41-3.43ZM50.28,39.82c-.55,0-1.05-.11-1.51-.36,0,0,.01,0,.01-.01.49-.39.99-.81,1.5-.81s1.02.42,1.5.81t.02.01c-.46.24-.97.36-1.52.36ZM51.99,39.19c-.5-.41-1.08-.88-1.71-.88s-1.2.47-1.71.88c-.03.03-.07.06-.1.09-.18-.13-.37-.28-.53-.45-.65-.64-.98-1.44-.98-2.35s.33-1.71.98-2.36c.64-.65,1.44-.98,2.35-.98s1.71.33,2.36.98c.65.64.98,1.44.98,2.36s-.33,1.7-.98,2.35c-.16.17-.35.32-.53.45-.04-.03-.07-.06-.11-.09ZM53.46,39.67c-.3.3-.62.16-1.08-.17.17-.12.34-.27.49-.42.71-.71,1.08-1.59,1.08-2.59s-.37-1.88-1.08-2.59c-.71-.71-1.58-1.08-2.59-1.08s-1.88.37-2.59,1.08-1.07,1.58-1.07,2.59.36,1.88,1.07,2.59c.16.15.33.3.5.42-.46.34-.79.47-1.09.17-.87-.88-1.32-1.95-1.32-3.18s.45-2.32,1.32-3.18c.88-.88,1.95-1.32,3.18-1.32s2.32.44,3.18,1.32c.88.87,1.32,1.94,1.32,3.18s-.44,2.31-1.32,3.18Z"/>
      <path  fill="#ffffff"  d="M53.82,32.96c-.97-.97-2.16-1.46-3.55-1.46s-2.57.49-3.54,1.46c-.97.97-1.46,2.16-1.46,3.55s.49,2.57,1.46,3.54c.54.54,1.12.21,1.68-.22.56.32,1.18.48,1.86.48s1.31-.16,1.86-.48c.36.27.72.51,1.07.51.21,0,.42-.08.62-.29.97-.97,1.46-2.16,1.46-3.54s-.49-2.58-1.46-3.55ZM50.28,39.95c-.57,0-1.09-.12-1.56-.37,0,0,.01,0,.01-.01.51-.4,1.02-.83,1.55-.83s1.06.43,1.55.83t.02.01c-.47.25-1,.37-1.57.37ZM52.05,39.31c-.52-.42-1.12-.91-1.77-.91s-1.25.49-1.77.91c-.03.03-.07.06-.11.1-.19-.14-.38-.29-.55-.46-.68-.67-1.01-1.49-1.01-2.43s.34-1.77,1.01-2.44c.67-.68,1.49-1.01,2.43-1.01s1.77.34,2.44,1.01c.68.67,1.01,1.49,1.01,2.44s-.34,1.76-1.01,2.43c-.17.18-.36.33-.55.46-.04-.03-.07-.06-.12-.1ZM53.57,39.8c-.31.31-.64.17-1.12-.18.18-.13.35-.27.51-.43.74-.74,1.12-1.65,1.12-2.68s-.38-1.94-1.12-2.68c-.74-.74-1.64-1.12-2.68-1.12s-1.94.38-2.68,1.12-1.11,1.64-1.11,2.68.37,1.94,1.11,2.68c.17.16.34.31.52.43-.48.35-.81.49-1.13.18-.9-.91-1.36-2.02-1.36-3.29s.46-2.4,1.36-3.29c.91-.91,2.02-1.36,3.29-1.36s2.4.45,3.29,1.36c.91.9,1.36,2.01,1.36,3.29s-.45,2.39-1.36,3.29Z"/>
    </g>
    <g>
      <path  fill="#ffffff"  class="cls-1" d="M49.87,34.07c.47-.06.44,1.36.44,1.36,0,0,1.16-.19,1.49.19s-.06,2.04-.8,2.12c-.6.07-1.43-.03-1.43-.03,0,0-.16-3.59.31-3.65Z"/>
      <rect  fill="#ffffff"  class="cls-1" x="48.65" y="35.86" width=".67" height="1.88" rx=".09" ry=".09"/>
    </g>
  </g>
  <path  fill="#ffffff"  d="M22.83,37.68h-13.68c-4.84,0-8.77-3.94-8.77-8.77s3.94-8.77,8.77-8.77h13.68v17.54ZM9.15,20.8c-4.47,0-8.1,3.63-8.1,8.1s3.63,8.1,8.1,8.1h13.01v-16.2h-13.01Z"/>
  <path  fill="#ffffff"  d="M25.16,37.68h-3.01v-17.54h3.01c.73,0,1.32.59,1.32,1.32v1.26c0,.18-.15.33-.33.33s-.33-.15-.33-.33v-1.26c0-.36-.29-.65-.65-.65h-2.34v16.2h2.34c.36,0,.65-.29.65-.65v-1.46c0-.18.15-.33.33-.33s.33.15.33.33v1.46c0,.73-.59,1.32-1.32,1.32Z"/>
  <path  fill="#ffffff"  d="M37.13,42.01c-.13,0-.26-.03-.39-.08l-8.9-3.67c-.36-.15-.59-.49-.59-.87v-16.09c0-.36.2-.68.52-.84l8.97-4.54c.32-.16.69-.15,1,.04.3.19.49.51.48.87l-.07,24.16c0,.34-.17.66-.45.85-.17.11-.37.17-.57.17ZM37.21,16.47s-.1.01-.16.04l-8.97,4.54c-.09.05-.15.14-.15.25v16.09c0,.11.07.21.17.25l8.9,3.67c.11.04.23.03.33-.03.1-.07.16-.17.16-.29l.07-24.16c0-.18-.12-.27-.17-.3-.03-.02-.1-.05-.18-.05Z"/>
  <path  fill="#ffffff"  d="M10.39,48.2c-1.48,0-2.68-1.2-2.68-2.68v-6.85c0-.18.15-.33.33-.33s.33.15.33.33v6.85c0,1.11.9,2.01,2.01,2.01s2.01-.9,2.01-2.01v-6.85c0-.18.15-.33.33-.33s.33.15.33.33v6.85c0,1.48-1.2,2.68-2.68,2.68Z"/>
</svg>