<?xml version="1.0" encoding="UTF-8"?>
<svg id="smm2" xmlns="http://www.w3.org/2000/svg" viewBox="0 0 64.75 64.38">
  <defs>
    <style>
      .cls-1 {
        fill: #1e1e1e;
      }

      .cls-2 {
        fill: #c6c6c6;
      }
    </style>
  </defs>
  <g>
    <path class="cls-1" d="M37.41,47.61c-.18,0-.36-.02-.54-.07-.54-.14-.99-.49-1.27-.97h0l-13.46-23.31c-.28-.48-.35-1.04-.21-1.58.14-.54.49-.99.97-1.27l.88-.51c1-.57,2.27-.23,2.85.76l13.46,23.31c.28.48.35,1.04.21,1.58-.14.54-.49.99-.97,1.27l-.88.51c-.32.19-.68.28-1.04.28ZM36.26,46.19c.18.31.46.53.81.62s.7.04,1.01-.13l.88-.51c.63-.37.85-1.18.49-1.81l-13.46-23.31c-.37-.63-1.18-.85-1.81-.49l-.88.51c-.31.18-.53.46-.62.81-.09.34-.04.7.13,1.01l13.46,23.31Z"/>
    <g>
      <path class="cls-1" d="M8.81,46.07l-2.15-4.57.3-.18c3.49-2.07,6.63-4.65,9.35-7.67,2.65-2.94,4.85-6.25,6.53-9.83l.69.32c-1.72,3.65-3.96,7.02-6.65,10.01-2.69,2.99-5.79,5.55-9.23,7.64l1.86,3.95-.69.32Z"/>
      <path class="cls-1" d="M10.32,48.96l-1.73-3.36.67-.35,1.43,2.79c2.18-.67,15.41-4.57,24.63-2.99l-.13.75c-9.84-1.68-24.43,3.01-24.57,3.06l-.31.1Z"/>
    </g>
    <path class="cls-1" d="M4.3,51.61c-.21,0-.42-.03-.63-.1-.51-.17-.93-.52-1.18-1l-1.9-3.72c-.51-.99-.11-2.21.88-2.72l5.56-2.74,3.92,7.35-5.75,2.72c-.29.14-.6.22-.91.22ZM6.71,42.33l-4.89,2.41c-.62.31-.86,1.08-.55,1.7l1.9,3.72c.15.3.41.52.74.63.32.1.66.08.96-.08h.01s5.04-2.39,5.04-2.39l-3.2-6Z"/>
    <path class="cls-1" d="M36.03,31.16c-.13,0-.26-.07-.33-.19-.1-.18-.04-.41.14-.52l6.94-4.01c.18-.1.41-.04.52.14.1.18.04.41-.14.52l-6.94,4.01c-.06.03-.13.05-.19.05Z"/>
    <path class="cls-1" d="M45.5,37.02s-.07,0-.1-.01l-7.74-2.07c-.2-.05-.32-.26-.27-.46.05-.2.27-.32.46-.27l7.74,2.07c.2.05.32.26.27.46-.05.17-.2.28-.37.28Z"/>
    <path class="cls-1" d="M33.73,27.54s-.07,0-.1-.01c-.2-.05-.32-.26-.27-.46l2.07-7.74c.05-.2.27-.32.46-.27.2.05.32.26.27.46l-2.07,7.74c-.05.17-.2.28-.37.28Z"/>
  </g>
  <g>
    <g>
      <rect class="cls-2" x="57.64" y="18.06" width="3.37" height="2.1" rx=".59" ry=".59"/>
      <path class="cls-2" d="M59.45,20.06s.27.2.24.44c-.02.24-.12.46-.12.46,0,0,.51-.12.71-.54.2-.41.05-.63.05-.63l-.88.27Z"/>
    </g>
    <g>
      <path d="M62.78,16.26c-.95-.95-2.11-1.42-3.46-1.42s-2.5.47-3.45,1.42c-.95.95-1.42,2.11-1.42,3.46s.47,2.5,1.42,3.45c.53.53,1.09.21,1.64-.22.55.31,1.15.46,1.81.46s1.28-.15,1.81-.46c.35.27.7.49,1.04.49.21,0,.41-.08.61-.28.95-.95,1.42-2.11,1.42-3.45s-.47-2.51-1.42-3.46ZM59.32,23.08c-.56,0-1.06-.11-1.52-.36,0,0,.01,0,.01-.01.49-.39,1-.81,1.51-.81s1.03.42,1.51.81t.02.01c-.46.25-.98.36-1.54.36ZM61.05,22.45c-.5-.41-1.09-.89-1.73-.89s-1.22.47-1.73.89c-.03.03-.07.06-.1.09-.19-.13-.37-.28-.54-.45-.66-.65-.99-1.45-.99-2.37s.33-1.73.99-2.38c.65-.66,1.45-.99,2.37-.99s1.73.33,2.38.99c.66.65.99,1.45.99,2.38s-.33,1.72-.99,2.37c-.16.18-.35.32-.54.45-.04-.03-.07-.06-.11-.09ZM62.54,22.93c-.3.3-.63.16-1.09-.18.18-.12.34-.27.49-.42.72-.72,1.09-1.61,1.09-2.62s-.37-1.9-1.09-2.62c-.72-.72-1.6-1.09-2.62-1.09s-1.9.37-2.62,1.09-1.08,1.6-1.08,2.62.36,1.9,1.08,2.62c.16.15.33.3.5.42-.46.34-.79.47-1.1.18-.88-.89-1.33-1.97-1.33-3.21s.45-2.34,1.33-3.21c.89-.89,1.97-1.33,3.21-1.33s2.34.44,3.21,1.33c.89.88,1.33,1.96,1.33,3.21s-.44,2.33-1.33,3.21Z"/>
      <path d="M62.9,16.16c-.98-.98-2.19-1.47-3.58-1.47s-2.59.49-3.57,1.47c-.98.98-1.47,2.19-1.47,3.58s.49,2.59,1.47,3.57c.54.54,1.13.21,1.69-.22.56.32,1.19.48,1.88.48s1.32-.16,1.88-.48c.36.28.72.51,1.08.51.21,0,.43-.09.63-.29.98-.98,1.47-2.19,1.47-3.57s-.49-2.6-1.47-3.58ZM59.32,23.21c-.58,0-1.1-.12-1.58-.37,0,0,.01,0,.01-.01.51-.41,1.03-.84,1.57-.84s1.07.44,1.57.84t.02.01c-.48.26-1.01.37-1.59.37ZM61.11,22.56c-.52-.43-1.13-.92-1.79-.92s-1.26.49-1.79.92c-.03.03-.07.06-.11.1-.19-.14-.38-.29-.55-.47-.68-.67-1.02-1.5-1.02-2.45s.34-1.79,1.02-2.46c.67-.68,1.5-1.02,2.45-1.02s1.79.34,2.46,1.02c.68.67,1.02,1.5,1.02,2.46s-.34,1.78-1.02,2.45c-.17.18-.36.33-.55.47-.04-.03-.07-.06-.12-.1ZM62.65,23.07c-.31.31-.65.17-1.13-.18.18-.13.35-.28.51-.44.75-.75,1.13-1.66,1.13-2.71s-.38-1.96-1.13-2.71c-.75-.75-1.65-1.13-2.71-1.13s-1.96.38-2.71,1.13-1.12,1.65-1.12,2.71.37,1.96,1.12,2.71c.17.16.34.31.52.44-.48.35-.82.49-1.14.18-.91-.92-1.37-2.04-1.37-3.33s.47-2.42,1.37-3.33c.92-.92,2.04-1.37,3.33-1.37s2.42.46,3.33,1.37c.92.91,1.38,2.03,1.38,3.33s-.46,2.41-1.38,3.33Z"/>
    </g>
  </g>
  <g>
    <path class="cls-2" d="M46.95,16.05c-.42-.23-.98.06-1.24.45-.26-.39-.84-.68-1.27-.45-.45.24-.55.71-.31,1.16.24.45,1.58,1.54,1.58,1.53,0,.01,1.34-1.08,1.58-1.53.24-.45.11-.91-.34-1.16Z"/>
    <g>
      <path d="M49.16,13.96c-.95-.95-2.11-1.42-3.46-1.42s-2.5.47-3.45,1.42c-.95.95-1.42,2.11-1.42,3.46s.47,2.5,1.42,3.45c.53.53,1.09.21,1.64-.22.55.31,1.15.46,1.81.46s1.28-.15,1.81-.46c.35.27.7.49,1.04.49.21,0,.41-.08.61-.28.95-.95,1.42-2.11,1.42-3.45s-.47-2.51-1.42-3.46ZM45.7,20.78c-.56,0-1.06-.11-1.52-.36,0,0,.01,0,.01-.01.49-.39,1-.81,1.51-.81s1.03.42,1.51.81t.02.01c-.46.25-.98.36-1.54.36ZM47.43,20.16c-.5-.41-1.09-.89-1.73-.89s-1.22.47-1.73.89c-.03.03-.07.06-.1.09-.19-.13-.37-.28-.54-.45-.66-.65-.99-1.45-.99-2.37s.33-1.73.99-2.38c.65-.66,1.45-.99,2.37-.99s1.73.33,2.38.99c.66.65.99,1.45.99,2.38s-.33,1.72-.99,2.37c-.16.18-.35.32-.54.45-.04-.03-.07-.06-.11-.09ZM48.91,20.64c-.3.3-.63.16-1.09-.18.18-.12.34-.27.49-.42.72-.72,1.09-1.61,1.09-2.62s-.37-1.9-1.09-2.62c-.72-.72-1.6-1.09-2.62-1.09s-1.9.37-2.62,1.09-1.08,1.6-1.08,2.62.36,1.9,1.08,2.62c.16.15.33.3.5.42-.46.34-.79.47-1.1.18-.88-.89-1.33-1.97-1.33-3.21s.45-2.34,1.33-3.21c.89-.89,1.97-1.33,3.21-1.33s2.34.44,3.21,1.33c.89.88,1.33,1.96,1.33,3.21s-.44,2.33-1.33,3.21Z"/>
      <path d="M49.28,13.86c-.98-.98-2.19-1.47-3.58-1.47s-2.59.49-3.57,1.47c-.98.98-1.47,2.19-1.47,3.58s.49,2.59,1.47,3.57c.54.54,1.13.21,1.69-.22.56.32,1.19.48,1.88.48s1.32-.16,1.88-.48c.36.28.72.51,1.08.51.21,0,.43-.09.63-.29.98-.98,1.47-2.19,1.47-3.57s-.49-2.6-1.47-3.58ZM45.7,20.92c-.58,0-1.1-.12-1.58-.37,0,0,.01,0,.01-.01.51-.41,1.03-.84,1.57-.84s1.07.44,1.57.84t.02.01c-.48.26-1.01.37-1.59.37ZM47.49,20.27c-.52-.43-1.13-.92-1.79-.92s-1.26.49-1.79.92c-.03.03-.07.06-.11.1-.19-.14-.38-.29-.55-.47-.68-.67-1.02-1.5-1.02-2.45s.34-1.79,1.02-2.46c.67-.68,1.5-1.02,2.45-1.02s1.79.34,2.46,1.02c.68.67,1.02,1.5,1.02,2.46s-.34,1.78-1.02,2.45c-.17.18-.36.33-.55.47-.04-.03-.07-.06-.12-.1ZM49.03,20.77c-.31.31-.65.17-1.13-.18.18-.13.35-.28.51-.44.75-.75,1.13-1.66,1.13-2.71s-.38-1.96-1.13-2.71c-.75-.75-1.65-1.13-2.71-1.13s-1.96.38-2.71,1.13-1.12,1.65-1.12,2.71.37,1.96,1.12,2.71c.17.16.34.31.52.44-.48.35-.82.49-1.14.18-.91-.92-1.37-2.04-1.37-3.33s.47-2.42,1.37-3.33c.92-.92,2.04-1.37,3.33-1.37s2.42.46,3.33,1.37c.92.91,1.38,2.03,1.38,3.33s-.46,2.41-1.38,3.33Z"/>
    </g>
  </g>
  <g>
    <g>
      <path d="M53.6,26.84c-.95-.95-2.11-1.42-3.46-1.42s-2.5.47-3.45,1.42c-.95.95-1.42,2.11-1.42,3.46s.47,2.5,1.42,3.45c.53.53,1.09.21,1.64-.22.55.31,1.15.46,1.81.46s1.28-.15,1.81-.46c.35.27.7.49,1.04.49.21,0,.41-.08.61-.28.95-.95,1.42-2.11,1.42-3.45s-.47-2.51-1.42-3.46ZM50.14,33.66c-.56,0-1.06-.11-1.52-.36,0,0,.01,0,.01-.01.49-.39,1-.81,1.51-.81s1.03.42,1.51.81t.02.01c-.46.25-.98.36-1.54.36ZM51.87,33.03c-.5-.41-1.09-.89-1.73-.89s-1.22.47-1.73.89c-.03.03-.07.06-.1.09-.19-.13-.37-.28-.54-.45-.66-.65-.99-1.45-.99-2.37s.33-1.73.99-2.38c.65-.66,1.45-.99,2.37-.99s1.73.33,2.38.99c.66.65.99,1.45.99,2.38s-.33,1.72-.99,2.37c-.16.18-.35.32-.54.45-.04-.03-.07-.06-.11-.09ZM53.35,33.51c-.3.3-.63.16-1.09-.18.18-.12.34-.27.49-.42.72-.72,1.09-1.61,1.09-2.62s-.37-1.9-1.09-2.62c-.72-.72-1.6-1.09-2.62-1.09s-1.9.37-2.62,1.09-1.08,1.6-1.08,2.62.36,1.9,1.08,2.62c.16.15.33.3.5.42-.46.34-.79.47-1.1.18-.88-.89-1.33-1.97-1.33-3.21s.45-2.34,1.33-3.21c.89-.89,1.97-1.33,3.21-1.33s2.34.44,3.21,1.33c.89.88,1.33,1.96,1.33,3.21s-.44,2.33-1.33,3.21Z"/>
      <path d="M53.72,26.74c-.98-.98-2.19-1.47-3.58-1.47s-2.59.49-3.57,1.47c-.98.98-1.47,2.19-1.47,3.58s.49,2.59,1.47,3.57c.54.54,1.13.21,1.69-.22.56.32,1.19.48,1.88.48s1.32-.16,1.88-.48c.36.28.72.51,1.08.51.21,0,.43-.09.63-.29.98-.98,1.47-2.19,1.47-3.57s-.49-2.6-1.47-3.58ZM50.14,33.8c-.58,0-1.1-.12-1.58-.37,0,0,.01,0,.01-.01.51-.41,1.03-.84,1.57-.84s1.07.44,1.57.84t.02.01c-.48.26-1.01.37-1.59.37ZM51.93,33.14c-.52-.43-1.13-.92-1.79-.92s-1.26.49-1.79.92c-.03.03-.07.06-.11.1-.19-.14-.38-.29-.55-.47-.68-.67-1.02-1.5-1.02-2.45s.34-1.79,1.02-2.46c.67-.68,1.5-1.02,2.45-1.02s1.79.34,2.46,1.02c.68.67,1.02,1.5,1.02,2.46s-.34,1.78-1.02,2.45c-.17.18-.36.33-.55.47-.04-.03-.07-.06-.12-.1ZM53.46,33.65c-.31.31-.65.17-1.13-.18.18-.13.35-.28.51-.44.75-.75,1.13-1.66,1.13-2.71s-.38-1.96-1.13-2.71c-.75-.75-1.65-1.13-2.71-1.13s-1.96.38-2.71,1.13-1.12,1.65-1.12,2.71.37,1.96,1.12,2.71c.17.16.34.31.52.44-.48.35-.82.49-1.14.18-.91-.92-1.37-2.04-1.37-3.33s.47-2.42,1.37-3.33c.92-.92,2.04-1.37,3.33-1.37s2.42.46,3.33,1.37c.92.91,1.38,2.03,1.38,3.33s-.46,2.41-1.38,3.33Z"/>
    </g>
    <g>
      <path class="cls-2" d="M49.72,27.86c.47-.06.44,1.38.44,1.38,0,0,1.17-.19,1.5.19s-.06,2.06-.81,2.14c-.61.07-1.45-.03-1.45-.03,0,0-.16-3.63.31-3.68Z"/>
      <rect class="cls-2" x="48.5" y="29.66" width=".67" height="1.9" rx=".09" ry=".09"/>
    </g>
  </g>
</svg>