<svg id="Layer_1" enable-background="new 0 0 470 470" viewBox="0 0 470 470" width="65px"
     xmlns="http://www.w3.org/2000/svg" version="1.1"
     xmlns:xlink="http://www.w3.org/1999/xlink"
     xmlns:svgjs="http://www.w3.org/1999/xlink">
    <g transform="matrix(1,0,0,1,0,0)">
        <g>
            <g>
                <g>
                    <g>
                        <path d="m234.062 394.88h-61.679c-9.989 0-18.116-8.136-18.116-18.137 0-4.162 1.407-8.001 3.771-11.064-5.031-3.262-8.366-8.931-8.366-15.365 0-5.23 2.204-9.956 5.731-13.293-3.527-3.337-5.731-8.063-5.731-13.293 0-5.208 2.185-9.914 5.685-13.248-3.498-3.31-5.685-7.994-5.685-13.182.064-9.935 8.009-18.431 18.127-18.431l32.265.023c-13.924-15.796-16.941-36.78-12.226-56.986 2.737-11.79 14.188-21.586 26.104-15.214 4.202 2.301 7.361 9.995 14.104 28.329 1.748 4.756 3.42 9.302 4.863 12.789 11.886 2.223 22.493 10.041 29.512 16.475 2.036 1.865 2.174 5.028.308 7.063-1.864 2.036-5.03 2.174-7.063.308-5.311-4.867-15.848-13.201-26.755-14.331-1.764-.183-3.298-1.286-4.034-2.899-1.81-3.971-3.95-9.791-6.216-15.953-2.844-7.732-7.561-20.56-9.78-23.138-5.942-2.82-9.981 4.028-11.322 8.93-2.371 10.217-2.52 21.252.33 31.394 3.051 10.855 10.632 16.637 17.304 25.158 2.463 3.144.027 8.084-3.939 8.084l-43.459-.031c-4.697 0-7.977 3.978-8.12 8.431 0 4.486 3.641 8.137 8.116 8.137h14.294c2.762 0 5 2.238 5 5s-2.238 5-5 5h-14.139c-4.561 0-8.271 3.72-8.271 8.293s3.711 8.293 8.271 8.293h14.139c2.762 0 5 2.238 5 5s-2.238 5-5 5h-14.139c-4.561 0-8.271 3.72-8.271 8.293 0 4.572 3.711 8.292 8.271 8.292h14.139c2.762 0 5 2.238 5 5s-2.238 5-5 5h-9.698c-4.476 0-8.116 3.65-8.116 8.138 0 4.486 3.641 8.137 8.116 8.137h61.679c2.762 0 5 2.238 5 5s-2.243 4.998-5.004 4.998z"
                              fill="#ffffffff" data-original-color="#000000ff"
                              stroke="none"/>
                    </g>
                </g>
                <g>
                    <g>
                        <path d="m307.965 393.891h-16.093c-8.271 0-15-6.729-15-15v-100.823c0-8.271 6.729-15 15-15h16.093c8.271 0 15 6.729 15 15v100.822c0 8.272-6.729 15.001-15 15.001zm-16.093-120.823c-2.757 0-5 2.243-5 5v100.822c0 2.757 2.243 5 5 5h16.093c2.757 0 5-2.243 5-5v-100.822c0-2.757-2.243-5-5-5z"
                              fill="#ffffffff" data-original-color="#000000ff"
                              stroke="none"/>
                    </g>
                </g>
            </g>
            <g>
                <g>
                    <path d="m397.317 470h-322c-13.785 0-25-11.215-25-25v-26.975c0-2.762 2.238-5 5-5h362c2.762 0 5 2.238 5 5v26.975c0 13.785-11.214 25-25 25zm-337-46.975v21.975c0 8.271 6.729 15 15 15h322c8.271 0 15-6.729 15-15v-21.975z"
                          fill="#ffffffff" data-original-color="#000000ff"
                          stroke="none"/>
                </g>
            </g>
            <g>
                <g>
                    <g>
                        <path d="m234.644 150.994c-1.597 0-3.408-1.026-4.233-2.34l-14.601-23.232h-55.81c-2.762 0-5-2.238-5-5v-115.422c0-2.762 2.238-5 5-5h150c2.762 0 5 2.238 5 5v115.422c0 2.762-2.238 5-5 5h-55.873l-15.304 23.315c-.925 1.409-2.496 2.257-4.179 2.257zm-69.644-35.572h53.572c1.72 0 3.318.884 4.233 2.34l11.929 18.981 12.514-19.064c.924-1.408 2.495-2.257 4.18-2.257h53.572v-105.422h-140z"
                              fill="#ffffffff" data-original-color="#000000ff"
                              stroke="none"/>
                    </g>
                </g>
                <g>
                    <path d="m284.809 31.321c-.061-2.664-2.338-4.882-5.005-4.874h-89.608c-2.711-.008-5.014 2.288-5.014 5v63.459c0 2.762 2.238 5 5 5h89.637c2.762 0 5-2.238 5-5v-63.459c-.001-.042-.009-.083-.01-.126zm-81.211 5.126h62.804l-31.402 27.181zm-8.416 53.459v-47.518l36.546 31.634c1.879 1.627 4.666 1.627 6.545 0l36.546-31.634v47.518z"
                          fill="#ffffffff" data-original-color="#000000ff"
                          stroke="none"/>
                </g>
            </g>
            <g>
                <g>
                    <circle cx="259.043" cy="389.88" r="6.5" fill="#ffffffff"
                            data-original-color="#000000ff" stroke="none"/>
                </g>
            </g>
            <g>
                <g>
                    <circle cx="73.818" cy="389.026" r="6.5" fill="#ffffffff"
                            data-original-color="#000000ff" stroke="none"/>
                </g>
            </g>
            <g>
                <g>
                    <circle cx="398.818" cy="389.026" r="6.5" fill="#ffffffff"
                            data-original-color="#000000ff" stroke="none"/>
                </g>
            </g>
            <g>
                <g>
                    <path d="m393.73 233.9c-.898 0-1.796-.242-2.591-.724-39.974-24.212-39.682-47.185-37.7-55.938 4.126-18.233 27.626-28.463 41.283-13.047 13.586-16.058 38.054-3.593 41.917 14.287 1.905 8.816 1.771 31.807-40.52 54.813-.745.407-1.567.609-2.389.609zm-15.585-67.351c-7.314 0-13.395 6.021-14.952 12.898-3.021 13.346 8.412 29.544 30.677 43.657 33.853-19.198 34.393-36.054 32.997-42.513-2.805-12.976-19.533-20.592-27.256-5.101-1.956 3.924-7.453 4.291-9.245.293-2.69-5.998-6.997-9.234-12.221-9.234z"
                          fill="#ffffffff" data-original-color="#000000ff"
                          stroke="none"/>
                </g>
            </g>
            <g>
                <g>
                    <path d="m465 134.839h-140c-2.762 0-5 2.238-5 5v38.315h-170v-34.137c0-2.762-2.238-5-5-5h-140c-2.762 0-5 2.238-5 5v106.837c0 2.762 2.238 5 5 5h63.818v106.171c0 2.762 2.238 5 5 5s5-2.238 5-5v-106.171h7.511l33.78 32.016c3.197 3.032 8.439.628 8.439-3.629v-28.387h16.452c2.762 0 5-2.238 5-5v-62.7h170v62.511c0 2.762 2.238 5 5 5h10.635v20.392c0 4.218 5.152 6.624 8.365 3.698l26.469-24.09h23.35v106.36c0 2.762 2.238 5 5 5s5-2.238 5-5v-106.36h61.181c2.762 0 5-2.238 5-5v-110.826c0-2.762-2.238-5-5-5zm-325 111.015h-16.451c-2.762 0-5 2.238-5 5v21.759l-26.787-25.388c-.929-.881-2.16-1.371-3.439-1.371h-78.323v-96.837h130zm320-.189h-91.466c-1.245 0-2.445.464-3.365 1.302l-19.534 17.778v-14.08c0-2.762-2.238-5-5-5h-10.635v-100.826h130z"
                          fill="#ffffffff" data-original-color="#000000ff"
                          stroke="none"/>
                </g>
                <g>
                    <g>
                        <path d="m111.129 185.564h-72.258c-2.762 0-5-2.238-5-5s2.238-5 5-5h72.258c2.762 0 5 2.238 5 5s-2.238 5-5 5z"
                              fill="#ffffffff" data-original-color="#000000ff"
                              stroke="none"/>
                    </g>
                </g>
                <g>
                    <g>
                        <path d="m111.129 221.533h-72.258c-2.762 0-5-2.238-5-5s2.238-5 5-5h72.258c2.762 0 5 2.238 5 5s-2.238 5-5 5z"
                              fill="#ffffffff" data-original-color="#000000ff"
                              stroke="none"/>
                    </g>
                </g>
            </g>
        </g>
    </g>
</svg>