<?xml version="1.0" encoding="UTF-8"?>
<svg id="Layer_1" xmlns="http://www.w3.org/2000/svg" viewBox="0 0 512 512">
  <defs>
    <style>
      .cls-1 {
        fill: #fff;
      }
    </style>
  </defs>
  <path class="cls-1" d="M512,287.43c0,70.84-24.96,131.2-74.88,181.12-49.92,49.92-110.3-71.72-181.12-71.72s-131.2,121.64-181.12,71.72C24.96,418.63,0,358.27,0,287.43S24.96,156.23,74.88,106.3C124.8,56.39,185.16,31.43,256,31.43s131.2,24.96,181.12,74.88c49.92,49.92,74.88,110.3,74.88,181.12ZM448,287.43c0-52.9-18.78-98.12-56.32-135.68-37.56-37.54-82.78-56.32-135.68-56.32s-98.14,18.78-135.68,56.32-56.32,82.78-56.32,135.68,18.76,98.14,56.32,135.68c37.54,37.56,82.76,56.32,135.68,56.32s98.12-18.76,135.68-56.32c37.54-37.54,56.32-82.76,56.32-135.68Z"/>
</svg>