<?xml version="1.0" encoding="UTF-8"?>
<svg id="Layer_1" xmlns="http://www.w3.org/2000/svg" viewBox="0 0 860.15 186.34">
  <defs>
    <style>
      .cls-1 {
        fill: #fff;
      }
    </style>
  </defs>
  <path class="cls-1" d="M574.04,134.15v51.47c-15.53-1.36-27.81-14.51-27.81-30.42v-71.88c0-15.67-5.57-28.38-16.6-37.51-10.42-8.92-23.43-13.51-38.46-13.63-15.03.12-28.04,4.71-38.46,13.63-11.04,9.13-16.6,21.84-16.6,37.51v71.88c0,15.82-12.08,28.88-27.45,30.37-.12,0-.24.05-.36.05v-102.3c0-1.33.05-2.69.12-4,.57-13.91,4.35-26.5,11.16-37.53,7.75-12.06,18.22-21.48,31.14-27.95,12.65-6.3,26.07-9.66,39.84-9.8.19-.05.43-.05.62-.05s.43,0,.62.05c13.77.14,27.19,3.5,39.84,9.8,12.92,6.47,23.38,15.89,31.14,27.95,4.04,6.56,7.04,13.72,8.9,21.36-3.43,10.13-5.28,21-5.28,32.3,0,13.7,2.71,26.78,7.66,38.7Z"/>
  <path class="cls-1" d="M104.13,149.02c-14.56,0-28.02,12.63-40.39,22.5,11.94,7.42,25.4,11.11,40.39,11.11s28.45-3.71,40.41-11.11c-12.39-9.87-25.85-22.5-40.41-22.5Z"/>
  <path class="cls-1" d="M203.96,135.32c-4.78,15.94-13.49,30.23-26.14,42.89-10.06,10.06-21.15,3-33.28-6.68,5.23-3.21,10.16-7.16,14.79-11.8,15.27-15.27,22.91-33.68,22.91-55.21s-7.64-39.91-22.91-55.18c-15.27-15.27-33.68-22.93-55.21-22.93s-39.91,7.66-55.18,22.93c-15.29,15.27-22.91,33.66-22.91,55.18s7.61,39.94,22.91,55.21c4.64,4.64,9.59,8.59,14.79,11.8-12.13,9.68-23.24,16.74-33.28,6.68C10.16,157.89,0,133.34,0,104.51S10.16,51.14,30.47,30.83C50.76,10.54,75.33.38,104.13.38s53.37,10.16,73.69,30.45c8.73,8.73,15.58,18.24,20.55,28.54-2.69,8.87-4.16,18.1-4.42,27.64-.1,1.26-.1,2.4-.1,3.26v.45c0,1.33.05,2.66.1,4.07.17,4.5.67,9.06,1.43,13.49,1.59,9.47,4.47,18.53,8.59,27.04Z"/>
  <path class="cls-1" d="M390.25,87.37l-.3,95.74c-15.38-1.29-27.5-14.32-27.5-30v-62.85c0-11.13-2.92-21.57-8.73-30.91-5.54-9.57-13.06-17.2-22.41-22.75-9.42-5.62-19.86-8.39-30.91-8.39s-21.34,2.77-30.88,8.39c-9.61,5.54-17.17,13.06-22.44,22.37-5.81,9.15-8.77,19.75-8.77,31.29v.38c.08,11.58,3.15,23.74,8.35,32.55,5.58,9.46,13.14,17.05,22.48,22.6,9.11,5.58,19.63,8.43,31.26,8.43s28.75-2.32,50.13-21c0,.27-.04.53-.04.8-.23,3.53-.38,7.33-.42,10.94-.04,1.41-.04,2.77-.04,4.1,0,1.52.04,2.92.08,4.25.11,3.91.46,7.06.84,10.94-.04,0-.04.04-.08.04-8.24,5.51-27.12,18.08-50.47,18.08-16.14,0-31.29-4.1-44.96-12.19-12.23-7.22-23.58-19.41-32.81-35.28-5.47-9.08-9.08-18.91-10.82-29.36-.65-3.72-1.06-7.52-1.22-11.39-.04-1.14-.08-2.28-.08-3.42v-.46c0-.8,0-1.59.08-2.35.34-15.23,4.37-29.66,12.04-42.76,8.13-13.79,19.25-24.87,33.15-32.96,13.41-7.86,28.48-11.81,44.62-11.81s30.69,3.91,44.43,11.73c13.82,7.75,24.99,18.42,33.31,31.67,7.71,12.8,11.74,26.74,12.08,41.47.04.68.04,1.41.04,2.13Z"/>
  <g>
    <path class="cls-1" d="M390.25,87.37l-.3,95.74v.72c-15.38-1.29-27.5-14.28-27.5-30v-62.85c0-11.13-2.92-21.53-8.73-30.88-5.54-9.57-13.06-17.24-22.41-22.75-9.42-5.62-19.86-8.39-30.91-8.39s-21.34,2.77-30.88,8.39c-9.61,5.51-17.17,13.06-22.44,22.37-5.73,9.08-8.7,19.48-8.77,30.91v.34c0,11.73,3.11,24.04,8.35,32.96,5.58,9.46,13.14,17.05,22.48,22.56,9.11,5.62,19.63,8.43,31.26,8.43s28.71-2.28,50.09-20.93l.04-.04c-.23,3.53-.38,7.33-.46,10.98-.04,1.41-.04,2.77-.04,4.1,0,1.52.04,2.92.08,4.25.08,4.03.38,7.18.76,10.98.04.23.04.46.08.68-8.2,5.51-27.12,18.12-50.55,18.12-16.14,0-31.29-4.06-44.96-12.15-12.23-7.25-23.58-19.41-32.81-35.32-5.47-9.08-9.08-18.91-10.82-29.32-.68-3.95-1.1-8.01-1.22-12.15-.04-1.14-.08-2.28-.08-3.42,0-.72,0-1.41.08-2.09.34-15.23,4.37-29.62,12.04-42.72,8.13-13.79,19.25-24.87,33.15-32.96,13.41-7.86,28.48-11.81,44.62-11.81s30.69,3.91,44.43,11.74c13.82,7.75,24.99,18.42,33.31,31.63,7.6,12.61,11.58,26.28,12.08,40.75.04.68.04,1.41.04,2.13Z"/>
    <path class="cls-1" d="M378.14,43.78c-8.32-13.25-19.48-23.93-33.31-31.67-13.75-7.82-28.71-11.73-44.43-11.73s-31.22,3.95-44.62,11.81c-13.9,8.09-25.03,19.18-33.15,32.96-7.67,13.1-11.7,27.53-12.04,42.76-.08.76-.08,1.56-.08,2.35v.46c0,1.14.04,2.28.08,3.42.11,4.14.53,8.2,1.22,12.15,1.75,10.41,5.35,20.24,10.82,29.32,9.23,15.91,20.58,28.07,32.81,35.32,13.67,8.09,28.82,12.15,44.96,12.15,23.43,0,42.34-12.61,50.55-18.12-.04-.23-.04-.46-.08-.68.04,0,.04-.04.08-.04-.38-3.87-.72-7.03-.84-10.94-.04-1.33-.08-2.73-.08-4.25,0-1.33,0-2.7.04-4.1.08-3.65.23-7.44.46-10.98l-.04.04c0-.27.04-.53.04-.8-21.38,18.68-38.66,21-50.13,21s-22.14-2.85-31.26-8.43c-9.34-5.54-16.9-13.14-22.48-22.6-5.2-8.81-8.28-20.96-8.35-32.55.08-11.43,3.04-21.84,8.77-30.91,5.28-9.3,12.84-16.86,22.44-22.37,9.53-5.62,19.94-8.39,30.88-8.39s21.49,2.77,30.91,8.39c9.34,5.51,16.86,13.18,22.41,22.75,5.81,9.34,8.73,19.75,8.73,30.88v62.85c0,15.72,12.11,28.71,27.5,30v-.72l.3-95.74c0-.72,0-1.44-.04-2.13-.34-14.74-4.37-28.67-12.08-41.47ZM236.6,53.46c-6.95,11.09-10.48,23.74-10.48,37.52s3.65,28.29,10.06,39.15c6.61,11.24,15.61,20.28,26.58,26.77,11.05,6.8,23.7,10.22,37.64,10.22,9.34,0,22.22-1.22,37.64-9.53.04.38.08.76.08,1.14-8.62,5.32-22.25,12.15-37.71,12.15-13.98,0-27-3.49-38.74-10.44-10.52-6.23-20.36-16.94-28.6-31.1-4.63-7.75-7.75-16.18-9.27-25.18-.76-4.14-1.1-8.58-1.1-13.18,0-.38-.04-.76,0-1.14l.04-.95c.3-13.18,3.8-25.56,10.37-36.8,7.1-12,16.79-21.61,28.86-28.63,11.47-6.72,24.42-10.14,38.43-10.14s26.55,3.42,38.47,10.18c11.92,6.68,21.68,15.95,28.82,27.31,6.87,11.43,10.37,23.96,10.37,37.33l-.23,75.88c-2.01-2.92-3.19-6.42-3.19-10.18v-62.85c0-13.37-3.53-25.86-10.48-37.14-6.57-11.32-15.53-20.39-26.62-26.96-11.28-6.72-23.77-10.1-37.14-10.1s-25.71,3.38-36.95,9.99c-11.39,6.57-20.43,15.53-26.85,26.7Z"/>
  </g>
  <path class="cls-1" d="M752.86,49.71c-8.37-13.56-19.74-24.62-33.78-32.82-14.03-8.18-29.18-12.3-45.07-12.3s-31.52,4.04-45.12,11.99c-14.06,8.16-25.31,19.34-33.47,33.28-3.54,5.99-6.26,12.25-8.23,18.7-.76,2.19-1.33,4.42-1.81,6.68-1.38,5.76-2.09,11.58-2.26,17.62-.02.88-.02,1.71-.02,2.62,0,.5,0,1,.02,1.5.07,6.64.88,13.15,2.43,19.41.69,3,1.52,5.95,2.62,8.87,1.88,5.26,4.26,10.42,7.21,15.32,8.21,14.1,19.36,25.33,33.18,33.51,13.84,8.13,29.09,12.25,45.45,12.25s31.59-4.19,45.34-12.58c11.63-6.68,21.36-15.53,28.99-26.45l-.17-59.44c0-2.21.07-4.57.24-7.04.24-3.62.64-6.83,1.19-9.99,0-.12.02-.24.05-.36l.07-.33c.5-3,1.24-6.14,2.19-9.54l.1-.38c.43-1.69.93-3.16,1.38-4.5l.36-1.09c.21-.64.45-1.28.74-1.95-.5-1-1.07-1.97-1.62-2.97ZM731.17,95.48c0,10.16-2.57,19.72-7.64,28.59-5.14,8.87-12.01,15.87-20.81,20.93-8.75,5.09-18.39,7.64-28.71,7.64s-19.69-2.55-28.64-7.64c-8.85-5.07-15.86-12.01-20.93-20.76-5.11-8.75-7.61-18.36-7.61-28.76v-.59c.1-10.13,2.57-19.6,7.61-28.28,5.07-8.87,12.01-15.82,20.76-20.86,8.82-4.95,18.36-7.44,28.8-7.44s20,2.55,28.85,7.61c8.92,5.14,15.79,12.01,20.81,20.69,4.85,8.63,7.37,18.12,7.49,28.26v.62Z"/>
  <path class="cls-1" d="M856.8,0c-16.27,0-31.63,4.07-45.62,11.96-14.46,7.97-25.93,18.79-34.08,32.13-1.59,2.64-3.07,5.35-4.33,8.11-.67,1.38-1.28,2.76-1.83,4.19-.55,1.24-1.05,2.5-1.47,3.71-.48,1.43-.98,2.85-1.33,4.23v.07c-.81,2.83-1.5,5.66-2.02,8.59v.02c-.02.21-.07.43-.12.67-.45,2.69-.76,5.35-.98,8.13-.1,1.95-.19,3.97-.19,5.97l.12,28.09v1.26l.05,12.7v11.61l.02,5.78v.1l.12,36.63v.29c7.71-.59,14.89-3.88,20.41-9.37,4.97-4.97,8.18-11.3,9.06-18.15.17-.98.24-1.97.29-2.97.02-.52.02-1.09.02-1.67l-.62-57.75c0-1.45.05-2.85.17-4.28.07-1.26.19-2.5.33-3.71,1.09-8.44,3.95-16.27,8.49-23.36,5.64-9.3,13.44-16.94,23.12-22.57,9.73-5.59,20.36-8.47,31.54-8.47.5,0,1.24.02,2.21.12V.31l-3.35-.31Z"/>
</svg>